<?xml version="1.0" encoding="UTF-8" standalone="no"?>
<!-- Created with Inkscape (http://www.inkscape.org/) -->

<svg
   xmlns:dc="http://purl.org/dc/elements/1.1/"
   xmlns:cc="http://creativecommons.org/ns#"
   xmlns:rdf="http://www.w3.org/1999/02/22-rdf-syntax-ns#"
   xmlns:svg="http://www.w3.org/2000/svg"
   xmlns="http://www.w3.org/2000/svg"
   xmlns:xlink="http://www.w3.org/1999/xlink"
   xmlns:sodipodi="http://sodipodi.sourceforge.net/DTD/sodipodi-0.dtd"
   xmlns:inkscape="http://www.inkscape.org/namespaces/inkscape"
   width="263.8963mm"
   height="206.44978mm"
   viewBox="0 0 263.8963 206.44978"
   version="1.1"
   id="svg8"
   inkscape:version="0.92.3 (2405546, 2018-03-11)"
   sodipodi:docname="Fitness girl.svg">
  <title
     id="title1073">Fitness girl</title>
  <defs
     id="defs2">
    <linearGradient
       inkscape:collect="always"
       id="linearGradient889">
      <stop
         style="stop-color:#ffd5d5;stop-opacity:1;"
         offset="0"
         id="stop885" />
      <stop
         style="stop-color:#ffd5d5;stop-opacity:0;"
         offset="1"
         id="stop887" />
    </linearGradient>
    <radialGradient
       inkscape:collect="always"
       xlink:href="#linearGradient889"
       id="radialGradient891"
       cx="149.00307"
       cy="130.44415"
       fx="149.00307"
       fy="130.44415"
       r="21.863295"
       gradientTransform="matrix(1.2378052,0,0,1.4670845,-4.3874559,-70.320189)"
       gradientUnits="userSpaceOnUse" />
  </defs>
  <sodipodi:namedview
     id="base"
     pagecolor="#ffffff"
     bordercolor="#666666"
     borderopacity="1.0"
     inkscape:pageopacity="0.0"
     inkscape:pageshadow="2"
     inkscape:zoom="0.5"
     inkscape:cx="427.74904"
     inkscape:cy="219.71376"
     inkscape:document-units="mm"
     inkscape:current-layer="layer1"
     showgrid="false"
     fit-margin-top="0"
     fit-margin-left="0"
     fit-margin-right="0"
     fit-margin-bottom="0"
     inkscape:window-width="1600"
     inkscape:window-height="845"
     inkscape:window-x="0"
     inkscape:window-y="27"
     inkscape:window-maximized="1" />
  <metadata
     id="metadata5">
    <rdf:RDF>
      <cc:Work
         rdf:about="">
        <dc:format>image/svg+xml</dc:format>
        <dc:type
           rdf:resource="http://purl.org/dc/dcmitype/StillImage" />
        <dc:title>Fitness girl</dc:title>
        <dc:date>2022</dc:date>
        <dc:creator>
          <cc:Agent>
            <dc:title>Doodleguy</dc:title>
          </cc:Agent>
        </dc:creator>
        <dc:rights>
          <cc:Agent>
            <dc:title>public domain</dc:title>
          </cc:Agent>
        </dc:rights>
        <cc:license
           rdf:resource="http://creativecommons.org/publicdomain/zero/1.0/" />
      </cc:Work>
      <cc:License
         rdf:about="http://creativecommons.org/publicdomain/zero/1.0/">
        <cc:permits
           rdf:resource="http://creativecommons.org/ns#Reproduction" />
        <cc:permits
           rdf:resource="http://creativecommons.org/ns#Distribution" />
        <cc:permits
           rdf:resource="http://creativecommons.org/ns#DerivativeWorks" />
      </cc:License>
    </rdf:RDF>
  </metadata>
  <g
     inkscape:groupmode="layer"
     id="layer2"
     inkscape:label="bund"
     transform="translate(-18.449793,-88.13639)" />
  <g
     inkscape:label="Layer 1"
     inkscape:groupmode="layer"
     id="layer1"
     transform="translate(-18.449793,-88.13639)">
    <g
       id="g1071">
      <path
         transform="matrix(0.26458333,0,0,0.26458333,0,87)"
         inkscape:connector-curvature="0"
         id="path1036"
         d="m 725.99692,142.83853 c -2.22345,0.0462 -4.43442,0.32314 -6.63745,0.60911 -0.82983,0.13438 -1.68748,0.2183 -2.46619,0.55464 -0.29368,0.11818 -0.58381,0.43885 -0.43445,0.77039 0.22914,0.5057 0.72646,0.81726 1.16208,1.1292 0.72286,0.45528 1.59611,0.57592 2.4296,0.6658 1.20554,0.0928 2.42133,-0.005 3.61304,-0.19541 1.38451,-0.2633 2.79503,-0.6307 3.97485,-1.43211 0.36571,-0.27861 0.76922,-0.58072 0.93853,-1.02423 0.0815,-0.26238 0.0409,-0.59076 -0.22528,-0.73133 -0.51855,-0.32323 -1.16116,-0.30322 -1.7501,-0.34039 -0.20148,-0.006 -0.40308,-0.008 -0.60463,-0.006 z"
         style="opacity:1;vector-effect:none;fill:#ffffff;fill-opacity:1;stroke:none;stroke-width:0.04311024;stroke-linecap:round;stroke-linejoin:miter;stroke-miterlimit:4;stroke-dasharray:none;stroke-dashoffset:0;stroke-opacity:0" />
      <path
         inkscape:connector-curvature="0"
         id="path39"
         d="m 195.02029,105.00306 c -0.53322,0.0706 0.028,0.66485 0.1948,0.85259 1.09072,1.23373 2.30058,2.86635 1.7528,4.60356 -0.54066,1.49148 -2.28712,1.93983 -3.70245,2.1121 -3.06195,0.54962 -6.38611,0.0825 -9.24654,1.5188 -1.81445,1.02947 -3.39071,2.46779 -4.74778,4.04239 -0.88962,1.22878 -1.62349,2.63662 -1.8911,4.13876 -0.24021,2.20449 0.10326,4.44522 0.98715,6.47827 1.24591,3.05488 3.93671,5.14787 5.68659,7.86785 0.48501,0.80749 0.92846,2.11128 0.13352,2.86648 -1.19369,0.75688 -2.70722,0.18888 -3.93621,-0.19959 -1.83674,-0.60848 -3.65456,-1.49325 -4.87174,-3.05149 -0.62226,-0.59403 -1.03644,-1.5204 -1.85304,-1.86489 -0.45232,0.19808 -0.15287,0.89983 -0.0296,1.24265 0.93107,2.02216 2.76472,3.40016 4.06176,5.15608 0.37313,0.62865 0.39599,1.5406 -0.0328,2.14286 -0.48798,0.39405 -1.09653,1.12244 -0.78993,1.77444 0.63262,0.91723 1.75505,1.22106 2.59011,1.88107 0.82506,0.9056 1.65141,1.83289 2.36387,2.82229 0.50178,1.0274 0.46736,2.32248 -0.0164,3.35065 -0.51871,0.95336 -1.74588,0.66745 -2.63409,0.71429 -1.94703,0.0543 -3.94808,-0.0707 -5.68536,-1.04329 -1.36541,-0.62648 -2.65464,-1.48267 -4.03464,-2.03487 -0.34851,0.4891 0.35144,0.9748 0.62953,1.32308 1.2586,1.29595 2.8287,2.19973 4.36274,3.11826 1.26603,0.95252 2.61486,2.07711 3.09592,3.64503 0.19685,1.6718 0.16626,3.3813 0.22625,5.06927 -1.16965,1.35561 -2.36411,2.69042 -3.50923,4.06654 0.49582,0.67225 1.30795,1.17485 1.91615,1.78264 3.01432,2.58461 5.55835,5.80889 6.87698,9.58671 1.47297,4.16048 1.51011,8.75478 3.55215,12.73236 1.16198,2.24373 2.75116,4.23838 4.30299,6.22149 1.22133,1.49718 2.9015,3.01066 4.97696,2.83953 0.85605,0.0989 1.60593,-0.41334 2.00046,-1.14741 0.39639,-0.57251 0.73083,-1.39519 0.1424,-1.97107 -3.09991,-4.19216 -4.62382,-9.27038 -5.80968,-14.28335 -0.71867,-2.53157 -1.40265,-5.07626 -1.65494,-7.70419 -0.34788,-3.44223 -0.94513,-6.85327 -1.40371,-10.2796 -0.12785,-0.59582 0.0492,-1.3529 -0.33925,-1.85117 -1.41626,-0.44509 -2.81208,-0.96252 -4.01148,-1.86811 -0.68318,-0.5239 -1.54984,-1.12006 -1.83268,-1.93208 1.44737,0.91793 2.61473,2.31511 4.30221,2.84367 1.43421,0.57895 3.02456,0.29331 4.52943,0.30831 3.15257,-0.0889 6.30658,-1.10998 8.73086,-3.16701 1.47421,-1.30542 3.14853,-2.59287 3.93183,-4.45769 0.50725,-1.56796 0.45737,-3.26935 0.32662,-4.89275 -0.34542,-1.36147 -1.68545,-2.18083 -2.11643,-3.50901 -0.52044,-1.10592 0.0852,-2.39722 1.10063,-2.97821 0.70054,-0.56553 1.99747,-0.88358 1.93947,-1.99081 -0.29703,-1.76712 -1.1722,-3.38475 -1.76847,-5.06396 -0.27768,-0.91554 -0.8832,-1.81879 -0.81025,-2.80071 0.165,-0.5308 0.86677,-0.20176 1.23764,-0.47323 0.89069,-0.31884 2.00498,-1.01376 1.94669,-2.08454 -0.3146,-1.00178 -1.32818,-1.69206 -2.30326,-1.9665 -0.98191,-0.16348 -1.68237,-1.02373 -2.33471,-1.70974 -1.82507,-2.39923 -2.87182,-5.37896 -3.12533,-8.37257 -0.32405,-2.77137 2.36807,-4.80676 2.2282,-7.56796 -0.0674,-1.44516 0.23846,-3.036 -0.47835,-4.36298 -0.95893,-1.2811 -2.58435,-1.81849 -4.04904,-2.29481 -0.36187,-0.0939 -0.73268,-0.17637 -1.10818,-0.17843 z m 0.16086,18.46301 c -0.0356,0.49762 -0.27812,1.12975 -0.27738,1.6917 0.0377,0.8364 -0.72243,1.38468 -1.48613,1.48853 -1.19466,0.23402 -2.48024,0.15905 -3.63136,-0.23491 -0.80491,-0.39107 -1.1585,-1.56912 -2.21075,-1.45409 -0.93762,-0.0428 -1.90509,0.37508 -2.81751,0.17885 0.27737,-0.51763 1.06779,-0.54751 1.57576,-0.75256 2.77975,-0.5258 5.64237,-0.38086 8.43087,-0.88517 0.13547,-0.0155 0.27598,-0.0324 0.4165,-0.0324 z"
         style="opacity:1;vector-effect:none;fill:#ffe6d5;fill-opacity:1;stroke:none;stroke-width:0.20325607;stroke-linecap:round;stroke-linejoin:miter;stroke-miterlimit:4;stroke-dasharray:none;stroke-dashoffset:0;stroke-opacity:0" />
      <path
         inkscape:connector-curvature="0"
         id="path41"
         d="m 193.64256,186.52815 c -0.20885,-0.0123 -0.28427,0.23141 -0.2726,0.40104 0.0307,0.59261 0.23955,1.15787 0.42674,1.71549 0.56694,1.5569 1.28893,3.05697 2.13039,4.48374 0.62949,1.0688 1.45856,2.00167 2.07649,3.07695 0.24145,0.38573 0.40001,0.81854 0.66357,1.19124 0.0458,0.0903 0.16686,0.102 0.22096,0.0131 0.23683,-0.33979 0.37479,-0.73745 0.54828,-1.11122 0.16812,-0.41616 0.37014,-0.82155 0.50207,-1.25084 0.009,-0.12565 -0.12857,-0.20367 -0.18029,-0.30745 -1.72448,-2.3195 -3.48351,-4.61382 -5.16077,-6.96807 -0.24899,-0.3538 -0.4962,-0.71084 -0.69892,-1.09321 -0.058,-0.0844 -0.14894,-0.1543 -0.25592,-0.1508 z"
         style="opacity:1;vector-effect:none;fill:#ffe6d5;fill-opacity:1;stroke:none;stroke-width:0.03593094;stroke-linecap:round;stroke-linejoin:miter;stroke-miterlimit:4;stroke-dasharray:none;stroke-dashoffset:0;stroke-opacity:0" />
      <path
         inkscape:connector-curvature="0"
         id="path43"
         d="m 190.71801,172.77978 c -0.26357,-0.0321 -0.37747,0.28096 -0.31266,0.49305 0.37379,1.47784 0.5497,2.99972 0.85165,4.49491 0.35747,1.82386 0.71719,3.65371 1.27375,5.42929 0.23654,0.80825 0.78294,1.4692 1.17022,2.20498 0.48294,0.86194 0.96978,1.7282 1.60634,2.48897 0.68734,0.82115 1.22514,1.75061 1.88463,2.59218 0.21337,0.23743 0.45157,0.52845 0.7893,0.56727 0.22431,0.0234 0.25704,-0.26178 0.21571,-0.42265 -0.14401,-0.74251 -0.64775,-1.35316 -0.80677,-2.08941 -0.63163,-2.31448 -1.04561,-4.68901 -1.78158,-6.97708 -0.29614,-0.99879 -0.72411,-1.97506 -0.85629,-3.01026 -0.0525,-0.37716 0.006,-0.80592 -0.21958,-1.13511 -0.11015,-0.0729 -0.23071,-0.13611 -0.29643,-0.26145 -0.49136,-0.74784 -0.76783,-1.61218 -1.25958,-2.36222 -0.46645,-0.73982 -1.03531,-1.45884 -1.80849,-1.89405 -0.13944,-0.0694 -0.29225,-0.12424 -0.45022,-0.11842 z"
         style="opacity:1;vector-effect:none;fill:#ffe6d5;fill-opacity:1;stroke:none;stroke-width:0.05081402;stroke-linecap:round;stroke-linejoin:miter;stroke-miterlimit:4;stroke-dasharray:none;stroke-dashoffset:0;stroke-opacity:0" />
      <path
         inkscape:connector-curvature="0"
         id="path854"
         d="m 159.51764,177.36434 c -0.62545,0.30053 -1.11599,0.83453 -1.65049,1.27085 -3.58797,3.28641 -7.01056,6.74786 -10.54172,10.09452 -1.85416,2.00353 -3.51047,4.18774 -5.40945,6.14924 -0.50254,0.53718 -1.06466,1.00707 -1.75497,1.27926 -0.99774,0.5337 -1.92789,1.21396 -3.02366,1.54002 -2.5293,0.82706 -5.2338,0.78054 -7.86427,0.68696 -2.42585,-0.11436 -4.82738,-0.5905 -7.25823,-0.66834 -0.18779,-0.0339 -0.55739,0.079 -0.38882,0.32741 0.50131,0.47771 1.16241,0.76066 1.73555,1.14533 1.42154,0.81555 2.79377,1.73476 4.2959,2.39853 3.65491,1.5205 7.70072,1.55327 11.5923,1.37002 2.42543,-0.12696 4.86257,-0.58953 7.09286,-1.57118 1.80088,-0.90546 3.19212,-2.4199 4.55398,-3.86894 1.52308,-1.63072 2.69587,-3.53976 3.83593,-5.44468 0.65797,-0.93214 1.09417,-1.99121 1.42236,-3.07862 0.92774,-2.95742 1.71191,-5.96327 2.80181,-8.86679 0.27363,-0.83796 0.66198,-1.66609 0.72679,-2.5542 -1e-5,-0.0961 -0.0507,-0.21866 -0.16587,-0.20939 z"
         style="opacity:1;vector-effect:none;fill:#ffe6d5;fill-opacity:1;stroke:none;stroke-width:0.08046471;stroke-linecap:round;stroke-linejoin:miter;stroke-miterlimit:4;stroke-dasharray:none;stroke-dashoffset:0;stroke-opacity:0" />
      <path
         inkscape:connector-curvature="0"
         id="path856"
         d="m 171.53851,169.19728 c -0.97868,0.57237 -1.67762,1.56719 -2.3199,2.4869 -0.90234,1.39969 -1.57527,3.00761 -1.44868,4.7054 0.0472,7.39014 1.62831,14.64475 2.83514,21.90362 1.15206,6.35392 2.91934,12.57987 3.94604,18.95715 0.48723,2.50639 0.62586,5.2121 1.97419,7.45078 2.7292,3.26939 5.72437,6.31152 8.65233,9.40259 1.87918,1.86272 3.64474,3.88394 5.7929,5.445 2.80074,1.58152 5.27165,3.69736 7.79523,5.68245 1.8483,1.5166 3.79642,3.20196 6.26859,3.49278 0.68506,0.0869 1.057,-0.64273 0.94167,-1.24288 0.037,-0.47727 -0.0369,-1.07654 0.11734,-1.48531 0.36754,0.90407 0.0171,1.93376 -0.0454,2.8742 -0.39439,3.11197 -1.28984,6.16428 -1.41712,9.30787 -0.13068,0.68355 0.91169,1.02483 1.21098,0.42037 0.63405,-1.42884 0.61475,-3.0561 1.00773,-4.55732 0.0937,-0.35863 0.13097,-0.85571 0.31741,-1.12622 0.24552,0.8502 -0.20786,1.75884 -0.27622,2.62323 -0.47587,2.21473 -0.50282,4.53308 -0.10405,6.75751 0.21108,0.62445 1.06997,0.17875 1.42356,0.68558 0.30134,0.24054 0.47835,1.12722 0.9902,0.72704 0.52696,-0.76404 -0.14921,-1.66855 -0.23718,-2.46958 -0.3955,-2.15593 -0.56405,-4.36967 -0.42994,-6.55709 0.49196,1.73728 0.39047,3.59345 0.70776,5.37059 0.26097,1.43731 0.78623,2.8736 1.63583,4.06825 0.72219,0.76217 1.93448,0.52215 2.71497,1.20962 0.29731,0.10876 0.75398,0.69046 1.04739,0.35475 -0.21483,-0.77363 -0.98413,-1.29263 -1.4467,-1.92889 -1.46707,-1.53795 -2.40186,-3.53635 -2.61322,-5.65121 -0.0814,-0.93196 -0.3303,-1.97739 -0.15608,-2.86353 0.75725,1.5286 0.20073,3.35786 0.98406,4.89384 0.77741,1.7621 1.97122,3.40761 3.54455,4.53521 0.9611,0.51924 2.10391,0.18095 3.08954,0.63568 0.25519,0.10328 1.07466,0.32145 0.89087,-0.21076 -1.38658,-2.32009 -3.13547,-4.40025 -4.81363,-6.50924 -0.97341,-1.70312 -1.40178,-3.65491 -2.12532,-5.46617 0.0232,-0.31857 0.33482,-0.84812 0.5614,-0.33994 1.02655,1.76176 1.1748,4.09968 2.90614,5.41559 0.57495,0.55101 1.64079,0.68626 2.24151,0.13375 0.22807,-0.56891 -0.58954,-0.88907 -0.90749,-1.22238 -0.77512,-0.47569 -0.4397,-1.50429 -0.92778,-2.17248 -0.53047,-1.00254 -1.34754,-1.84482 -1.66758,-2.95549 -0.76874,-1.78604 -0.97334,-3.73505 -1.59877,-5.56332 -0.31454,-0.99872 -1.29123,-1.69871 -1.44544,-2.74573 -0.12497,-1.04723 -1.1155,-1.72047 -1.70927,-2.51493 -2.20178,-2.42319 -4.12306,-5.09336 -6.44951,-7.40873 -2.31987,-2.43169 -4.72573,-4.79882 -6.74633,-7.48999 -2.55846,-3.05813 -5.54417,-5.75043 -7.93817,-8.9432 -2.03396,-2.76895 -2.46151,-6.2695 -2.91878,-9.57186 -0.68994,-5.64181 -1.49629,-11.27066 -2.48589,-16.8678 -0.60933,-2.81015 -1.03119,-5.66658 -1.79151,-8.44101 -1.35785,-3.7757 -3.48838,-7.27483 -6.1292,-10.29097 -1.03314,-1.07711 -2.06745,-2.2608 -3.41217,-2.94236 l -0.0221,-0.002 z"
         style="opacity:1;vector-effect:none;fill:#ffe6d5;fill-opacity:1;stroke:none;stroke-width:0.16092943;stroke-linecap:round;stroke-linejoin:miter;stroke-miterlimit:4;stroke-dasharray:none;stroke-dashoffset:0;stroke-opacity:0" />
      <path
         inkscape:connector-curvature="0"
         id="path858"
         d="m 205.10883,207.47548 c -0.42252,0.0266 -0.41551,0.58611 -0.49989,0.88927 -0.3655,2.44725 -1.45214,4.71443 -2.2594,7.03453 0.49315,0.89857 1.08326,1.75298 1.70848,2.5671 2.15356,2.57881 4.69345,4.80362 6.86433,7.36627 0.69392,0.82917 1.66825,1.33917 2.38456,2.14164 0.74627,0.7504 1.34633,1.63327 2.01531,2.44404 0.2208,0.0438 0.35078,-0.279 0.52859,-0.37298 1.95902,-1.86307 3.88834,-3.76208 6.00411,-5.45011 0.48085,-0.31657 0.24924,-1.00389 -0.0895,-1.3396 -1.80307,-2.05612 -3.81932,-3.91383 -5.81609,-5.77845 -2.29737,-2.065 -4.6168,-4.10421 -6.86218,-6.22602 -1.17363,-1.04978 -2.27186,-2.19775 -3.54968,-3.12316 -0.1293,-0.0788 -0.2727,-0.1557 -0.4286,-0.15253 z"
         style="opacity:1;vector-effect:none;fill:#ffe6d5;fill-opacity:1;stroke:none;stroke-width:0.08046471;stroke-linecap:round;stroke-linejoin:miter;stroke-miterlimit:4;stroke-dasharray:none;stroke-dashoffset:0;stroke-opacity:0" />
      <path
         inkscape:connector-curvature="0"
         id="path860"
         d="m 127.71328,245.79395 c -0.46158,0.0508 -1.0138,-0.0686 -1.40875,0.2275 -0.21879,0.45116 -0.1251,0.99493 -0.21987,1.47688 -0.42946,3.43623 -1.04513,6.85163 -1.70143,10.25287 -0.52825,2.63794 -1.22998,5.23802 -1.7074,7.88755 -0.55117,3.10886 -1.4074,6.15396 -2.41316,9.14472 -0.68051,1.85774 -1.37343,3.73343 -2.36975,5.44549 -0.20899,0.39738 -0.55269,0.76615 -0.6293,1.21417 0.14395,0.22051 0.45443,-0.0133 0.6228,-0.0982 0.97447,-0.70554 1.77999,-1.65277 2.29742,-2.74159 1.92626,-3.61263 2.79024,-7.64646 4.08298,-11.50086 0.85017,-2.90046 1.59951,-5.83013 2.46361,-8.72632 1.01431,-3.62302 2.06242,-7.24869 2.70833,-10.95963 0.0192,-0.43523 0.24039,-0.92165 0.0419,-1.33698 -0.4284,-0.35027 -1.05137,-0.24342 -1.5671,-0.28617 -0.0667,1.9e-4 -0.13351,3.3e-4 -0.20027,6.6e-4 z"
         style="opacity:1;vector-effect:none;fill:#ffe6d5;fill-opacity:1;stroke:none;stroke-width:0.08046471;stroke-linecap:round;stroke-linejoin:miter;stroke-miterlimit:4;stroke-dasharray:none;stroke-dashoffset:0;stroke-opacity:0" />
      <path
         inkscape:connector-curvature="0"
         id="path862"
         d="m 84.837839,267.9946 c -2.84176,-0.0283 -5.633009,0.75541 -8.216552,1.89274 -2.020623,0.86131 -3.737873,2.26138 -5.670757,3.28178 -0.93825,0.4835 -1.888607,1.0372 -2.938305,1.21556 -1.308186,0.0976 -2.595016,-0.44048 -3.910122,-0.36968 -0.704616,0.0533 -1.065101,0.87893 -1.770453,0.87629 -0.3224,-0.15734 -0.305,-0.70784 0.05366,-0.80941 0.545301,-0.42394 0.727344,-1.14421 1.024493,-1.73901 0.295182,-0.67998 0.53925,-1.40184 0.462863,-2.1546 0.06027,-0.59459 -0.317134,-1.32496 -0.96218,-1.37594 -0.504603,0.0306 -0.783658,0.54926 -1.133316,0.84704 -1.057352,1.13606 -1.96288,2.40592 -3.016266,3.54429 -0.203212,0.26579 0.115546,0.49584 0.350876,0.56003 0.922487,0.37732 1.400611,1.39712 1.426408,2.34382 0.119195,0.99335 0.01267,2.01033 0.222604,2.99192 0.182543,0.5002 0.784621,0.66634 1.261337,0.7291 1.441444,0.0521 2.833058,-0.38098 4.166675,-0.88096 3.50209,-1.30177 6.884406,-2.89713 10.316316,-4.36854 2.075911,-0.92683 4.091114,-2.06851 6.352608,-2.47498 3.466933,-0.72899 7.101311,-0.59177 10.515215,0.33622 0.146832,0.0704 0.506748,0.10641 0.439738,-0.15915 -0.240129,-0.45731 -0.568676,-0.88997 -0.663937,-1.41 -0.403552,-0.60309 -1.132402,-0.87686 -1.750315,-1.20767 -1.744445,-0.78961 -3.587047,-1.43729 -5.499715,-1.64253 -0.352972,-0.025 -0.707147,-0.0279 -1.060873,-0.0263 z"
         style="opacity:1;vector-effect:none;fill:#ffe6d5;fill-opacity:1;stroke:none;stroke-width:0.08046471;stroke-linecap:round;stroke-linejoin:miter;stroke-miterlimit:4;stroke-dasharray:none;stroke-dashoffset:0;stroke-opacity:0" />
      <path
         inkscape:connector-curvature="0"
         id="path864"
         d="m 97.587579,243.82267 c -0.324117,0.14565 -0.261842,0.65838 -0.415971,0.93847 -0.600964,2.39551 -1.27035,4.77034 -1.937188,7.14953 -1.243947,4.86212 -1.972483,9.85955 -2.191589,14.87291 -0.04821,1.13833 -0.05362,2.3199 0.474326,3.36287 0.677422,1.72273 1.682223,3.28643 2.501058,4.93815 0.100894,0.25776 -0.337075,0.051 -0.38489,-0.0654 -0.518398,-0.50943 -0.728546,-1.31925 -1.346226,-1.72757 -0.582287,-0.19697 -1.260175,-0.008 -1.789271,-0.39728 -1.891531,-0.97674 -4.097952,-0.76272 -6.153732,-0.75207 -2.273815,0.208 -4.518324,0.78652 -6.633025,1.64524 -3.200074,1.4971 -6.549175,2.65142 -9.698768,4.25973 -2.214782,1.06624 -4.597675,1.84406 -7.045302,2.09635 -0.896561,-0.003 -1.823485,0.0844 -2.702928,-0.11132 -0.405484,-0.38895 -0.246799,-1.06065 -0.331043,-1.56909 -0.07828,-1.05816 0.0026,-2.14921 -0.247176,-3.18412 -0.410557,-0.96628 -1.676702,-1.02462 -2.519749,-0.64347 -2.048788,0.85995 -3.607402,2.53396 -5.139512,4.08679 -1.293137,1.39403 -2.516867,2.90208 -4.1808,3.87847 -1.812167,1.16297 -3.739749,2.23085 -5.889526,2.56484 -0.93799,0.16204 -1.835213,0.51901 -2.795595,0.48978 -2.974873,0.19453 -5.963632,0.11151 -8.93491,0.34589 -0.371195,0.026 -0.640559,0.23046 -0.492996,0.6367 0.0186,0.13918 0.04556,0.45585 -0.189464,0.32141 -1.430204,-0.62177 -2.971014,-0.99729 -4.517499,-1.17706 -1.595559,-0.0113 -3.161925,0.46768 -4.637365,1.03722 -0.61459,0.20876 -1.061172,0.78864 -1.019015,1.45047 0.04797,0.38253 -0.171541,1.02241 0.28323,1.21927 0.990821,0.0466 2.002902,-0.22173 2.990346,-0.0229 1.368717,0.80116 2.917144,1.27477 4.472873,1.55438 5.18062,0.1299 10.368311,-0.0536 15.526179,-0.56119 2.625857,-0.20122 5.242636,-0.63116 7.734866,-1.50309 1.724386,-0.61083 3.528035,-1.01306 5.362917,-1.0043 3.883533,-0.0495 7.773632,-0.0856 11.656359,0.0499 3.967756,0.19712 7.91561,0.70855 11.876663,0.98273 4.639792,-0.0252 9.339176,0.17809 13.904016,-0.81958 5.305925,-0.88585 10.751518,-0.90434 15.992038,-2.20233 2.37103,-0.58702 4.52744,-1.87397 6.2406,-3.60621 1.52202,-1.43521 2.96271,-3.12625 3.38144,-5.23744 0.68105,-2.97381 1.88813,-5.80586 2.50913,-8.80151 0.85132,-4.07301 1.79116,-8.12689 2.59784,-12.20934 0.6369,-3.34007 1.11664,-6.70867 1.71853,-10.05326 0.0835,-0.33154 -0.32298,-0.1953 -0.44771,-0.0518 -1.64745,1.2623 -3.79209,1.41931 -5.76484,1.75264 -4.92305,0.76596 -10.00649,0.33893 -14.79293,-1.00284 -2.40868,-0.74551 -4.60024,-2.04297 -6.955241,-2.92413 -0.0224,-0.004 -0.04528,-0.007 -0.06815,-0.006 z"
         style="opacity:1;vector-effect:none;fill:#ffe6d5;fill-opacity:1;stroke:none;stroke-width:0.1137943;stroke-linecap:round;stroke-linejoin:miter;stroke-miterlimit:4;stroke-dasharray:none;stroke-dashoffset:0;stroke-opacity:0" />
      <path
         inkscape:connector-curvature="0"
         id="path866"
         d="m 44.806988,282.94578 c -0.458989,0.058 -0.892003,0.23617 -1.347847,0.3041 -0.854821,0.13608 -1.733858,0.18029 -2.60077,0.20817 -1.271317,0.0179 -2.55441,0.0588 -3.811849,-0.1157 -0.360816,-0.0373 -0.72289,-0.20451 -1.087486,-0.11467 -0.221883,0.089 -0.222662,0.36145 -0.234741,0.56219 -0.01529,0.0672 0.0065,0.16881 -0.04071,0.21814 -0.216014,-0.0897 -0.377365,-0.28551 -0.606296,-0.35665 -0.689514,-0.22735 -1.427737,-0.22673 -2.146255,-0.23136 -1.068127,0.0169 -2.153038,0.0717 -3.181826,0.38255 -0.380217,0.11546 -0.733979,0.33316 -1.00129,0.62744 -0.122201,0.13195 -0.07752,0.34417 0.06581,0.44132 0.286234,0.24315 0.687189,0.22071 1.037662,0.26994 1.218516,0.10484 2.443327,0.0725 3.664647,0.0539 2.273844,-0.0695 4.550707,-0.18382 6.806965,-0.4862 1.251499,-0.1744 2.488122,-0.47439 3.673403,-0.91346 0.28703,-0.10782 0.576028,-0.23786 0.780953,-0.47485 0.08047,-0.0852 0.238078,-0.22673 0.133425,-0.34857 -0.02905,-0.0232 -0.06797,-0.0271 -0.103792,-0.0263 z"
         style="opacity:1;vector-effect:none;fill:#ffe6d5;fill-opacity:1;stroke:none;stroke-width:0.02844857;stroke-linecap:round;stroke-linejoin:miter;stroke-miterlimit:4;stroke-dasharray:none;stroke-dashoffset:0;stroke-opacity:0" />
      <path
         inkscape:connector-curvature="0"
         id="path868"
         d="m 185.67727,88.978926 c -1.8432,-4.59e-4 -3.77216,0.600005 -5.00888,2.028686 -0.89078,0.941667 -1.62063,2.123407 -1.64525,3.456596 -0.14628,1.057283 0.0322,2.18364 -0.37313,3.189155 -0.1462,0.140392 -0.2732,-0.23471 -0.35847,-0.30949 -0.88074,-1.690144 -2.80626,-2.413925 -4.55987,-2.814738 -2.48879,-0.565972 -5.18807,-0.420723 -7.48406,0.759955 -1.34086,0.596044 -2.32189,1.733574 -3.59428,2.438222 -2.6035,1.724658 -4.86535,3.984478 -6.59082,6.587428 -1.55234,2.45522 -2.43673,5.29107 -2.88299,8.14615 -0.32862,3.02703 -0.1502,6.08085 -0.0914,9.1175 0.11636,3.22045 0.68477,6.41128 1.43504,9.53936 0.62426,2.25903 1.67074,4.39092 2.90508,6.37564 0.39598,0.51037 0.83643,1.29747 1.58128,1.24844 0.33038,-0.0689 0.49906,-0.51098 0.88509,-0.35786 0.38225,0.15086 0.66513,0.0208 0.65785,-0.40564 0.12726,-1.29109 -0.73976,-2.39148 -1.19503,-3.53499 -1.79907,-4.10705 -2.76018,-8.65768 -2.33033,-13.1393 0.28083,-2.62001 1.37256,-5.06525 2.3549,-7.48467 0.67236,-1.66478 1.55597,-3.22047 2.43436,-4.78059 0.4947,-1.18188 1.36032,-2.17047 2.26214,-3.06397 0.11934,-0.22541 0.46435,-0.126 0.33075,0.13646 -0.49271,1.35338 -1.69023,2.28898 -2.29661,3.58838 -1.54961,2.80906 -3.00623,5.70691 -3.77221,8.84086 -0.90686,3.22662 -1.05698,6.67667 -0.25274,9.94122 0.59039,2.65751 1.63328,5.19187 2.90847,7.58762 0.41742,0.745 0.60042,1.71402 0.0423,2.43749 -0.50889,0.65856 -0.53685,1.61505 -0.0153,2.27431 1.29907,1.73327 2.89787,3.21595 4.29373,4.86972 1.74316,2.06322 3.75598,3.9411 6.16999,5.19302 1.51823,0.79116 3.04463,1.60953 4.6799,2.13161 1.51761,0.21797 3.07791,0.19262 4.59386,-0.0172 0.53744,-0.054 0.94693,-0.52481 0.89271,-1.06848 0.0432,-1.76802 -1.1424,-3.27133 -2.3443,-4.44371 -2.51608,-2.14692 -5.38041,-3.88752 -7.6503,-6.31786 -3.3837,-3.51001 -5.82662,-7.89462 -7.21795,-12.55637 -0.43128,-1.36257 -0.58647,-2.77652 -0.54906,-4.20187 0.0423,-1.89488 -0.13661,-3.8141 0.18688,-5.68372 0.36362,-1.53599 1.18349,-2.92599 1.6014,-4.43849 0.31832,-0.49407 0.72055,-1.09362 1.33189,-1.20799 0.41326,0.009 0.40413,0.66566 0.0127,0.73269 -0.73333,0.29592 -0.86674,1.20652 -1.19208,1.83662 -0.82443,2.09172 -1.65226,4.26825 -1.53748,6.55752 -0.027,3.23285 0.70287,6.42243 1.84808,9.43211 0.63221,1.8712 1.8624,3.44287 2.82252,5.14714 0.80104,1.44807 1.93037,2.66291 3.11432,3.80356 0.9691,0.89895 1.87613,1.90827 3.0088,2.60165 0.80277,0.3256 1.93782,-0.01 2.26164,-0.85017 0.1011,-1.11975 -0.68661,-2.1137 -1.47979,-2.81429 -0.53281,-0.35261 -1.11931,-0.66878 -1.44067,-1.25423 -0.93355,-1.36467 -1.07539,-3.03771 -1.42368,-4.60366 -0.45355,-1.63735 -1.5991,-2.96181 -2.18287,-4.54715 -1.23458,-3.04091 -1.98876,-6.29076 -2.17498,-9.56691 -0.0515,-1.42913 -0.072,-3.02027 0.88305,-4.19664 0.56369,-0.65661 1.12058,-1.38752 1.8832,-1.81957 0.48593,-0.12784 1.15941,-0.18239 1.51926,0.22362 -0.47234,0.4846 -1.28671,0.41882 -1.8389,0.81119 -1.20979,0.74799 -2.02539,2.11802 -2.00155,3.55361 -0.0964,2.4846 0.50252,4.93308 1.07646,7.33253 0.5657,2.12261 1.22492,4.26208 2.44975,6.10849 0.82185,1.51835 1.71897,3.01028 2.93372,4.25186 0.80749,0.82615 1.56304,1.75885 2.57291,2.3444 0.71084,0.22735 1.40791,0.47662 2.10458,0.74769 1.13339,0.35042 2.36838,0.37793 3.53214,0.18754 0.56029,-0.12575 0.36742,-0.83422 0.24585,-1.22346 -0.74044,-1.71134 -2.0898,-3.06014 -3.27199,-4.47123 -0.8699,-0.93661 -1.74028,-1.89991 -2.24257,-3.09157 -0.99071,-1.87519 -1.776,-3.91817 -1.7676,-6.06217 -0.16258,-2.9554 1.27927,-5.80456 3.3772,-7.82461 1.54131,-1.51271 3.27268,-3.01514 5.44629,-3.46852 3.04338,-0.74502 6.2424,-0.62164 9.27876,-1.41551 0.82483,-0.1975 1.62714,-0.88537 1.54391,-1.80506 0.0189,-1.08251 -0.37982,-2.15695 -1.15966,-2.91914 -0.73263,-0.75122 -1.50211,-1.61995 -2.55761,-1.88385 -3.50972,-0.29539 -6.99441,1.15666 -9.59324,3.46658 -0.82531,0.76375 -1.77968,1.50534 -2.23636,2.56132 -0.058,0.16254 -0.0936,0.61166 -0.33768,0.53649 -0.34818,-0.45507 0.17247,-1.00137 0.39536,-1.38908 1.467,-2.0805 3.59704,-3.58569 5.8853,-4.64458 0.35574,-0.12686 0.49777,-0.50894 0.89353,-0.55119 2.15348,-0.53856 4.39522,-0.69711 6.60538,-0.65546 2.19193,0.14384 4.58105,0.90673 5.91312,2.77694 1.08687,1.59832 0.9681,3.61963 0.88529,5.45774 -0.24252,1.83315 -1.22738,3.45271 -1.74776,5.21359 -0.2791,0.93055 -0.63078,2.0208 -0.15397,2.94288 0.44115,0.60951 1.32085,0.46263 1.96698,0.37796 1.32405,-0.42302 2.30256,-1.51841 3.19254,-2.53457 1.12703,-1.29749 1.82941,-2.90166 2.17095,-4.5763 0.68507,-2.81246 0.72469,-5.74199 0.47848,-8.61293 -0.47102,-3.36494 -1.7861,-6.843853 -4.54537,-8.990387 -1.28986,-0.976601 -2.75518,-1.717876 -4.25779,-2.305422 -1.56076,-0.414824 -3.20187,-0.189415 -4.7967,-0.230709 -2.6816,-0.01742 -5.36002,0.488621 -7.85867,1.45685 -1.52756,0.618392 -2.9748,1.496344 -4.10046,2.705404 -0.28273,0.211785 -0.68231,0.178473 -0.94361,0.4532 -1.78573,1.433261 -3.41826,3.075544 -4.81641,4.890834 -1.20634,1.56128 -2.09032,3.35282 -2.63135,5.24825 -0.11775,0.19707 -0.14961,0.66058 -0.44256,0.6425 -0.21445,-0.5827 0.0935,-1.22709 0.25294,-1.80088 0.70056,-1.85298 1.499,-3.70438 2.69705,-5.29415 2.22832,-2.581111 4.89432,-4.780687 7.78535,-6.579429 2.42106,-1.508007 5.27208,-2.077691 8.05192,-2.502025 0.40869,0.0013 0.74625,-0.401183 0.54728,-0.794106 -0.5045,-1.053427 -1.49462,-1.803775 -2.47355,-2.393365 -1.14292,-0.638493 -2.47321,-0.813567 -3.76443,-0.791279 z"
         style="opacity:1;vector-effect:none;fill:#e3dbdb;fill-opacity:1;stroke:none;stroke-width:0.1137943;stroke-linecap:round;stroke-linejoin:miter;stroke-miterlimit:4;stroke-dasharray:none;stroke-dashoffset:0;stroke-opacity:0" />
      <path
         inkscape:connector-curvature="0"
         id="path868-3"
         d="m 185.67727,88.978904 c -1.8432,-4.58e-4 -3.77216,0.600001 -5.00888,2.028688 -0.89078,0.94166 -1.62063,2.123405 -1.64525,3.456596 -0.14627,1.057284 0.0322,2.183637 -0.37312,3.189156 -0.14621,0.140391 -0.27321,-0.234713 -0.35847,-0.309489 -0.88075,-1.690149 -2.80627,-2.41393 -4.55988,-2.814744 -2.48879,-0.565974 -5.18807,-0.420718 -7.48406,0.75995 -1.34086,0.596053 -2.32188,1.733584 -3.59428,2.438229 -2.6035,1.724659 -4.86536,3.98447 -6.59082,6.58743 -1.55234,2.45522 -2.43673,5.29107 -2.883,8.14614 -0.32861,3.02704 -0.15019,6.08085 -0.0914,9.11751 0.11636,3.22045 0.68478,6.41128 1.43505,9.53936 0.62427,2.25903 1.67074,4.39093 2.90507,6.37564 0.39599,0.51037 0.83645,1.29748 1.5813,1.24843 0.33037,-0.0689 0.49905,-0.51097 0.88508,-0.35786 0.38226,0.15087 0.66513,0.0208 0.65785,-0.40563 0.12726,-1.29109 -0.73976,-2.39149 -1.19504,-3.53499 -1.79906,-4.10705 -2.76017,-8.65768 -2.33033,-13.13931 0.28084,-2.62 1.37257,-5.06524 2.35492,-7.48466 0.67235,-1.66478 1.55597,-3.22047 2.43435,-4.78059 0.4947,-1.18188 1.36032,-2.17048 2.26214,-3.06397 0.11932,-0.22541 0.46435,-0.126 0.33075,0.13645 -0.49272,1.35339 -1.69023,2.28899 -2.29661,3.58839 -1.54961,2.80906 -3.00623,5.70691 -3.77221,8.84086 -0.90685,3.22662 -1.05697,6.67667 -0.25275,9.94122 0.5904,2.65751 1.63329,5.19188 2.90847,7.58761 0.41743,0.74501 0.60043,1.71403 0.0423,2.4375 -0.50889,0.65856 -0.53685,1.61504 -0.0152,2.27431 1.29907,1.73327 2.89787,3.21595 4.29373,4.86972 1.74316,2.06322 3.75598,3.9411 6.16998,5.19303 1.51823,0.79115 3.04463,1.60951 4.67991,2.13159 1.51761,0.21798 3.07791,0.19262 4.59385,-0.0172 0.53745,-0.054 0.94694,-0.52481 0.89271,-1.06847 0.0432,-1.76802 -1.1424,-3.27134 -2.34429,-4.44372 -2.51609,-2.14692 -5.38041,-3.88752 -7.65031,-6.31786 -3.38369,-3.51001 -5.82662,-7.89462 -7.21795,-12.55636 -0.43127,-1.36258 -0.58647,-2.77653 -0.54905,-4.20188 0.0422,-1.89488 -0.13662,-3.8141 0.18687,-5.68373 0.36362,-1.53598 1.18349,-2.92597 1.60141,-4.43847 0.31831,-0.49407 0.72055,-1.09362 1.33189,-1.208 0.41326,0.009 0.40413,0.66567 0.0128,0.7327 -0.73334,0.29592 -0.86675,1.20651 -1.19208,1.83661 -0.82443,2.09172 -1.65226,4.26825 -1.53749,6.55752 -0.027,3.23286 0.70288,6.42243 1.84808,9.43212 0.63222,1.8712 1.8624,3.44287 2.82253,5.14713 0.80103,1.44808 1.93037,2.66291 3.11432,3.80356 0.96909,0.89894 1.87611,1.90828 3.00879,2.60166 0.80277,0.3256 1.93782,-0.01 2.26165,-0.85018 0.10113,-1.11975 -0.68661,-2.1137 -1.4798,-2.81428 -0.5328,-0.35262 -1.1193,-0.66879 -1.44067,-1.25423 -0.93355,-1.36468 -1.07538,-3.03771 -1.42367,-4.60367 -0.45355,-1.63735 -1.5991,-2.96181 -2.18287,-4.54714 -1.23459,-3.04092 -1.98877,-6.29076 -2.17499,-9.56691 -0.0515,-1.42914 -0.072,-3.02029 0.88305,-4.19665 0.5637,-0.6566 1.12059,-1.38751 1.88321,-1.81956 0.48593,-0.12785 1.15941,-0.1824 1.51926,0.22361 -0.47235,0.4846 -1.28671,0.41883 -1.83891,0.81119 -1.20978,0.748 -2.02538,2.11803 -2.00154,3.55361 -0.0964,2.4846 0.50251,4.93309 1.07646,7.33254 0.5657,2.1226 1.22492,4.26207 2.44975,6.10849 0.82184,1.51834 1.71896,3.01027 2.93372,4.25185 0.8075,0.82615 1.56304,1.75885 2.5729,2.3444 0.71085,0.22736 1.40792,0.47663 2.10458,0.74769 1.1334,0.35043 2.36838,0.37792 3.53215,0.18755 0.56028,-0.12575 0.36741,-0.83423 0.24584,-1.22346 -0.74044,-1.71135 -2.0898,-3.06014 -3.27199,-4.47124 -0.86989,-0.93661 -1.74028,-1.89992 -2.24257,-3.09157 -0.9907,-1.87518 -1.776,-3.91817 -1.76759,-6.06216 -0.16259,-2.95541 1.27927,-5.80456 3.3772,-7.82462 1.5413,-1.5127 3.27268,-3.01514 5.44629,-3.46852 3.04338,-0.74502 6.24239,-0.62164 9.27876,-1.4155 0.82483,-0.19751 1.62714,-0.88537 1.54391,-1.80507 0.0189,-1.08251 -0.37983,-2.15695 -1.15967,-2.91914 -0.73263,-0.75122 -1.50211,-1.61994 -2.5576,-1.88384 -3.50973,-0.29539 -6.99442,1.15665 -9.59325,3.46658 -0.82531,0.76374 -1.77968,1.50534 -2.23635,2.56131 -0.0581,0.16255 -0.0936,0.61167 -0.33769,0.5365 -0.34818,-0.45508 0.17248,-1.00137 0.39537,-1.38909 1.46699,-2.08049 3.59703,-3.58569 5.88529,-4.64457 0.35575,-0.12686 0.49778,-0.50895 0.89353,-0.5512 2.15349,-0.53856 4.39523,-0.69711 6.60538,-0.65546 2.19193,0.14385 4.58105,0.90673 5.91312,2.77694 1.08688,1.59832 0.9681,3.61963 0.8853,5.45775 -0.24252,1.83315 -1.22739,3.4527 -1.74777,5.21358 -0.2791,0.93056 -0.63078,2.0208 -0.15397,2.94288 0.44116,0.60951 1.32085,0.46263 1.96699,0.37797 1.32405,-0.42302 2.30255,-1.51842 3.19253,-2.53457 1.12703,-1.29749 1.82941,-2.90166 2.17095,-4.5763 0.68508,-2.81247 0.7247,-5.74199 0.47849,-8.61294 -0.47103,-3.36494 -1.78611,-6.843845 -4.54537,-8.990385 -1.28986,-0.976604 -2.75518,-1.717876 -4.25779,-2.305425 -1.56078,-0.414825 -3.20187,-0.189409 -4.79671,-0.230702 -2.68159,-0.01745 -5.36002,0.488612 -7.85866,1.456848 -1.52757,0.618395 -2.9748,1.496345 -4.10046,2.705396 -0.28274,0.211789 -0.68231,0.178479 -0.94361,0.45321 -1.78573,1.433255 -3.41826,3.075538 -4.81641,4.890828 -1.20634,1.56128 -2.09033,3.35282 -2.63135,5.24824 -0.11772,0.19709 -0.14961,0.66058 -0.44257,0.64251 -0.21445,-0.58269 0.0936,-1.22708 0.25295,-1.80088 0.70056,-1.85298 1.499,-3.70438 2.69704,-5.29414 2.22832,-2.581124 4.89433,-4.780691 7.78536,-6.579432 2.42106,-1.508019 5.27207,-2.077694 8.05191,-2.502026 0.40869,0.0012 0.74626,-0.401185 0.54728,-0.794114 -0.50449,-1.053421 -1.49461,-1.803766 -2.47354,-2.393358 -1.14293,-0.638497 -2.47321,-0.813572 -3.76444,-0.791279 z"
         style="opacity:1;vector-effect:none;fill:url(#radialGradient891);fill-opacity:1;stroke:none;stroke-width:0.1137943;stroke-linecap:round;stroke-linejoin:miter;stroke-miterlimit:4;stroke-dasharray:none;stroke-dashoffset:0;stroke-opacity:0" />
      <path
         inkscape:connector-curvature="0"
         id="path893"
         d="m 217.14521,255.79675 c -0.11596,-1.9e-4 -0.20246,0.0913 -0.26345,0.17986 -0.12642,0.18878 -0.23056,0.39418 -0.29839,0.61136 -0.0201,0.0787 -0.0497,0.16793 -0.0115,0.24563 0.0523,0.0646 0.1282,0.1045 0.19322,0.15481 0.45058,0.31458 0.91055,0.6158 1.378,0.9047 0.0954,0.055 0.18685,0.11956 0.28987,0.15956 0.0663,0.0222 0.12478,-0.0353 0.14654,-0.093 0.0385,-0.0968 0.0471,-0.20461 0.0357,-0.3075 -0.0315,-0.12677 -0.0999,-0.24038 -0.1594,-0.35549 -0.21814,-0.38336 -0.48618,-0.73585 -0.76616,-1.07573 -0.10558,-0.12608 -0.21532,-0.2512 -0.346,-0.35198 -0.0575,-0.0422 -0.12565,-0.0743 -0.1984,-0.0722 z"
         style="opacity:1;vector-effect:none;fill:#ff80e5;fill-opacity:1;stroke:none;stroke-width:0.00711214;stroke-linecap:round;stroke-linejoin:miter;stroke-miterlimit:4;stroke-dasharray:none;stroke-dashoffset:0;stroke-opacity:0" />
      <path
         inkscape:connector-curvature="0"
         id="path895"
         d="m 216.32004,265.13473 c -0.20895,0.008 -0.42383,-3.3e-4 -0.6269,0.0554 -0.12154,0.0345 -0.10894,0.20081 -0.0209,0.2656 0.27823,0.2699 0.6119,0.48813 0.98498,0.60079 0.37836,0.12599 0.7769,0.1993 1.17676,0.17829 0.21032,-0.0134 0.43036,0.0146 0.63298,-0.0542 0.0956,-0.027 0.12918,-0.15457 0.0513,-0.22097 -0.27012,-0.2918 -0.61478,-0.51778 -0.99526,-0.63693 -0.3868,-0.13024 -0.79411,-0.20091 -1.20288,-0.18795 z"
         style="opacity:1;vector-effect:none;fill:#ff80e5;fill-opacity:1;stroke:none;stroke-width:0.02011618;stroke-linecap:round;stroke-linejoin:miter;stroke-miterlimit:4;stroke-dasharray:none;stroke-dashoffset:0;stroke-opacity:0" />
      <path
         inkscape:connector-curvature="0"
         id="path897"
         d="m 211.91547,264.78055 c -0.13759,-0.009 -0.31471,0.0679 -0.30761,0.2287 0.008,0.1383 0.15034,0.21361 0.24427,0.29526 0.46562,0.32525 0.97657,0.58354 1.50149,0.79844 0.16005,0.054 0.32459,0.13517 0.49704,0.11916 0.12478,-0.0314 0.0953,-0.19095 0.0339,-0.2682 -0.22891,-0.32163 -0.54654,-0.57158 -0.87734,-0.78195 -0.32649,-0.19869 -0.68887,-0.37181 -1.07639,-0.39147 l -0.0146,6e-5 z"
         style="opacity:1;vector-effect:none;fill:#ff80e5;fill-opacity:1;stroke:none;stroke-width:0.02011618;stroke-linecap:round;stroke-linejoin:miter;stroke-miterlimit:4;stroke-dasharray:none;stroke-dashoffset:0;stroke-opacity:0" />
      <path
         inkscape:connector-curvature="0"
         id="path899"
         d="m 207.02486,262.87422 c -0.2183,0.006 -0.48854,0.0411 -0.60313,0.25421 -0.0894,0.19164 0.029,0.39999 0.13221,0.55987 0.26217,0.35531 0.60588,0.65324 0.99438,0.86303 0.19983,0.10538 0.45869,0.14728 0.66437,0.0363 0.22184,-0.14275 0.25283,-0.43805 0.23395,-0.67877 -0.0104,-0.23547 -0.064,-0.48673 -0.24551,-0.65223 -0.30776,-0.30246 -0.76117,-0.38094 -1.17627,-0.38246 z"
         style="opacity:1;vector-effect:none;fill:#ff80e5;fill-opacity:1;stroke:none;stroke-width:0.02011618;stroke-linecap:round;stroke-linejoin:miter;stroke-miterlimit:4;stroke-dasharray:none;stroke-dashoffset:0;stroke-opacity:0" />
      <path
         inkscape:connector-curvature="0"
         id="path901"
         d="m 205.5995,259.27251 c -0.33866,0.01 -0.70269,0.0931 -0.95229,0.33647 -0.19534,0.20082 -0.17716,0.52206 -0.0465,0.75256 0.17048,0.30637 0.42445,0.56518 0.71369,0.76122 0.11943,0.0856 0.29802,0.10258 0.40667,-0.0103 0.23015,-0.21199 0.32872,-0.52666 0.39945,-0.82226 0.0447,-0.23762 0.0818,-0.49049 0.0155,-0.72727 -0.0658,-0.18105 -0.25389,-0.29703 -0.44446,-0.28922 -0.0307,-10e-4 -0.0614,-0.002 -0.0921,-10e-4 z"
         style="opacity:1;vector-effect:none;fill:#ff80e5;fill-opacity:1;stroke:none;stroke-width:0.02011618;stroke-linecap:round;stroke-linejoin:miter;stroke-miterlimit:4;stroke-dasharray:none;stroke-dashoffset:0;stroke-opacity:0" />
      <path
         inkscape:connector-curvature="0"
         id="path903"
         d="m 21.336985,289.55614 c -0.579963,0.005 -1.156705,0.0877 -1.727078,0.18718 -0.134368,0.0307 -0.32568,0.052 -0.373404,0.20614 -0.01952,0.15489 0.137984,0.25417 0.239463,0.3427 0.342127,0.26999 0.789403,0.33581 1.206071,0.41077 0.643639,0.10429 1.299957,0.12696 1.94975,0.0779 0.251339,-0.0319 0.527296,-0.051 0.736074,-0.20968 0.109297,-0.1105 0.05736,-0.29029 -0.0061,-0.41154 -0.176473,-0.29032 -0.521836,-0.4122 -0.83402,-0.49401 -0.388643,-0.0971 -0.792067,-0.1098 -1.190761,-0.10949 z"
         style="opacity:1;vector-effect:none;fill:#ff80e5;fill-opacity:1;stroke:none;stroke-width:0.02011618;stroke-linecap:round;stroke-linejoin:miter;stroke-miterlimit:4;stroke-dasharray:none;stroke-dashoffset:0;stroke-opacity:0" />
      <path
         inkscape:connector-curvature="0"
         id="path905"
         d="m 167.66582,171.42679 c -1.59179,0.46885 -2.95875,1.52376 -4.22766,2.56362 -2.52792,2.16262 -3.39856,5.52969 -4.51763,8.52548 -1.49421,4.2533 -2.59155,8.74874 -5.24663,12.46791 -1.93549,2.62354 -4.29806,5.04391 -7.24143,6.51754 -2.77634,1.35073 -5.90702,1.74921 -8.97108,1.64268 -3.07752,-0.0551 -6.32556,0.31503 -9.17923,-1.0758 -2.88405,-1.29824 -5.66035,-2.82782 -8.50182,-4.20985 -3.72655,0.22494 -7.60043,0.64915 -10.86596,2.61458 -3.15446,1.96402 -5.67944,4.74908 -8.26257,7.3811 -1.642903,1.82298 -2.672869,4.09289 -3.79153,6.25201 -0.581631,1.32625 -0.965418,2.72403 -1.505356,4.0679 -1.121706,4.07988 -0.557108,8.38098 0.298254,12.4531 0.379857,2.23394 0.794652,4.4722 1.661912,6.57861 0.203471,0.31882 0.175712,0.97279 0.52628,1.12166 0.310898,-0.13676 0.481088,-0.61809 0.803603,-0.65345 0.04981,1.58504 -0.73843,3.10901 -0.748465,4.70267 0.218484,0.737 1.102712,1.008 1.674148,1.42283 3.670344,1.93022 7.703084,3.13697 11.780414,3.84039 2.81829,0.40611 5.70294,0.20071 8.50608,-0.23166 1.8303,-0.37997 3.94283,-0.71297 5.20732,-2.23524 0.75352,-1.13769 0.62963,-2.60266 0.89043,-3.89374 0.45989,-3.47355 0.60488,-6.9768 0.87253,-10.46601 0.0117,-0.14328 0.078,-0.49086 0.11789,-0.14586 0.21777,2.60313 0.0826,5.24502 0.01,7.85992 -0.0888,1.38652 -0.21116,2.77081 -0.30942,4.15673 0.70474,-0.0512 1.47801,-0.47961 2.24812,-0.5573 3.02324,-0.43122 5.9243,-1.53887 8.58033,-3.02552 1.86549,-0.95575 3.64659,-2.10869 5.30297,-3.39538 4.52581,-4.06751 8.70837,-8.49988 13.11496,-12.69362 3.14352,-3.04156 6.44174,-6.04967 10.45456,-7.89992 2.20571,-1.06286 4.41157,-2.21445 6.80722,-2.77053 0.42833,-0.42611 -0.0332,-1.11921 -0.0304,-1.63089 -0.98043,-5.0395 -2.3771,-9.98691 -3.201,-15.05753 -0.61813,-3.57354 -1.37354,-7.12514 -2.07734,-10.67809 -0.46696,-3.61979 -0.69907,-7.31043 -0.32603,-10.94934 0.0258,-0.85034 0.47582,-1.67209 0.3871,-2.51789 -0.0494,-0.0805 -0.15552,-0.0883 -0.24014,-0.0811 z"
         style="opacity:1;vector-effect:none;fill:#ddff55;fill-opacity:1;stroke:none;stroke-width:0.16092943;stroke-linecap:round;stroke-linejoin:miter;stroke-miterlimit:4;stroke-dasharray:none;stroke-dashoffset:0;stroke-opacity:0" />
      <path
         inkscape:connector-curvature="0"
         id="path907"
         d="m 173.10343,168.51014 c -0.42135,0.0716 -0.96034,0.11199 -1.2531,0.44756 0.32099,0.44229 0.90488,0.67843 1.28932,1.08779 2.94993,2.61705 5.28063,5.87895 6.95173,9.43956 0.88593,1.64218 1.48886,3.41611 1.83498,5.24743 0.86853,3.79785 1.48393,7.64308 2.08164,11.49122 0.30414,1.51127 0.62206,3.01635 0.76393,4.55512 0.50063,3.86092 0.8569,7.74696 1.58367,11.57434 0.22451,1.23223 0.67816,2.42089 1.39831,3.44593 0.5453,1.18427 1.29165,2.40444 2.56001,2.90862 1.58189,0.66751 3.34206,1.10488 5.06398,0.8621 2.44632,-0.44404 4.38036,-2.261 5.77753,-4.22026 1.56925,-2.40043 2.61105,-5.18305 2.70438,-8.06786 0.083,-2.92997 -0.12239,-5.98377 -1.40294,-8.66735 -0.46745,-0.87365 -1.03581,-1.79947 -1.9259,-2.28759 -0.46904,-0.0753 -0.37074,0.583 -0.57564,0.83648 -0.78107,1.41697 -1.64688,2.81554 -2.74063,4.01194 -0.67906,0.56465 -1.61588,0.19439 -2.38828,0.0707 -1.26134,-0.26822 -2.41371,-0.93974 -3.26882,-1.9073 -1.95541,-2.03812 -3.70145,-4.29609 -5.13302,-6.73073 -1.5226,-2.58656 -2.13335,-5.56031 -2.61014,-8.488 -0.54239,-3.14013 -1.39034,-6.28222 -3.07766,-9.0168 -1.39084,-2.24041 -3.3194,-4.11909 -5.43587,-5.67264 -0.65902,-0.42905 -1.38373,-0.90833 -2.19748,-0.92029 z"
         style="opacity:1;vector-effect:none;fill:#ddff55;fill-opacity:1;stroke:none;stroke-width:0.1137943;stroke-linecap:round;stroke-linejoin:miter;stroke-miterlimit:4;stroke-dasharray:none;stroke-dashoffset:0;stroke-opacity:0" />
      <path
         inkscape:connector-curvature="0"
         id="path909"
         d="m 209.06503,142.65734 c -1.17707,0.0978 -2.23947,0.68978 -3.32058,1.11654 -0.78194,0.38547 -1.66654,0.62843 -2.33584,1.20608 -0.58978,0.64017 -0.3401,1.63816 0.12749,2.27189 0.86911,1.25011 2.03487,2.26925 3.2472,3.17618 0.57914,0.37801 1.36455,0.74694 2.04352,0.41843 0.49262,-0.41923 0.29726,-1.15331 0.19595,-1.70073 -0.15055,-0.53382 -0.25326,-1.18907 -0.7471,-1.51949 -0.66664,-0.16975 -1.44235,0.19988 -2.05605,-0.19993 -0.2189,-0.0977 -0.18538,-0.37418 0.0181,-0.46411 0.72141,-0.48699 1.70312,-0.459 2.32376,-1.11821 0.67716,-0.61021 1.41059,-1.27972 1.67921,-2.17913 0.11154,-0.64064 -0.61887,-1.0539 -1.17567,-1.00752 z"
         style="opacity:1;vector-effect:none;fill:#d35f5f;fill-opacity:1;stroke:none;stroke-width:0.08046471;stroke-linecap:round;stroke-linejoin:miter;stroke-miterlimit:4;stroke-dasharray:none;stroke-dashoffset:0;stroke-opacity:0" />
      <path
         inkscape:connector-curvature="0"
         id="path911"
         d="m 130.30859,242.44215 c -1.05655,0.12068 -2.13661,0.17205 -3.16257,0.46822 -0.51619,0.12776 -0.71569,0.67924 -0.69902,1.16018 0.0106,0.42277 -0.0905,0.88321 0.0426,1.2856 0.77822,-0.0254 1.56546,-0.21338 2.34415,-0.31408 0.4903,-0.12289 1.06663,-0.0751 1.48805,-0.3854 0.28279,-0.44492 0.13996,-1.02139 0.19703,-1.52067 -0.0621,-0.21573 0.1944,-0.78181 -0.21025,-0.69385 z"
         style="opacity:1;vector-effect:none;fill:#ddff55;fill-opacity:1;stroke:none;stroke-width:0.08046471;stroke-linecap:round;stroke-linejoin:miter;stroke-miterlimit:4;stroke-dasharray:none;stroke-dashoffset:0;stroke-opacity:0" />
      <path
         inkscape:connector-curvature="0"
         id="path923"
         d="m 209.96828,240.91766 c -0.0268,0.004 -0.0488,0.0248 -0.0556,0.0505 -0.007,0.0234 -0.0185,0.0488 -0.008,0.0731 0.008,0.0222 0.0285,0.0361 0.0435,0.0535 0.0155,0.0181 0.0392,0.03 0.0633,0.0263 0.0319,-0.004 0.0577,-0.0337 0.0566,-0.0658 -0.001,-0.0238 -0.0128,-0.0455 -0.0193,-0.0682 -0.007,-0.0211 -0.0133,-0.0447 -0.033,-0.0576 -0.0134,-0.01 -0.0307,-0.0138 -0.0472,-0.0119 z"
         style="opacity:1;vector-effect:none;fill:#e3d7f4;fill-opacity:1;stroke:none;stroke-width:0.00176484;stroke-linecap:round;stroke-linejoin:miter;stroke-miterlimit:4;stroke-dasharray:none;stroke-dashoffset:0;stroke-opacity:0" />
      <path
         inkscape:connector-curvature="0"
         id="path927"
         d="m 217.81973,281.56125 c -0.23104,0.005 -0.58337,0.0222 -0.64561,0.30005 -0.0179,0.34742 0.26173,0.61715 0.45943,0.87204 1.05921,1.17271 2.31408,2.1468 3.55965,3.11118 1.77752,1.33568 3.60422,2.61993 5.56129,3.68105 0.6037,0.30793 1.19471,0.65397 1.83486,0.88138 0.17126,0.0684 0.44447,0.0879 0.5102,-0.13383 0.0496,-0.3105 -0.17497,-0.58284 -0.29925,-0.84908 -0.85543,-1.47634 -1.82382,-2.88703 -2.86529,-4.23797 -0.64857,-0.88284 -1.54954,-1.54196 -2.51004,-2.05021 -1.61845,-0.85535 -3.41273,-1.36134 -5.22921,-1.55804 -0.12506,-0.0104 -0.2505,-0.0176 -0.37603,-0.0166 z"
         style="opacity:1;vector-effect:none;fill:#ff6600;fill-opacity:1;stroke:none;stroke-width:0.03993376;stroke-linecap:round;stroke-linejoin:miter;stroke-miterlimit:4;stroke-dasharray:none;stroke-dashoffset:0;stroke-opacity:0" />
      <path
         inkscape:connector-curvature="0"
         id="path929"
         d="m 244.02555,218.58765 c -3.40016,0.0662 -6.84249,0.0895 -10.17528,0.84115 -1.77065,0.51228 -3.39573,1.42188 -5.0619,2.19319 -1.49329,0.76056 -3.00547,1.49265 -4.4699,2.30421 -0.37835,0.26877 0.0737,0.73032 0.16935,1.03416 0.91351,1.62607 1.99524,3.16768 2.64622,4.92817 1.07899,2.78129 1.7513,5.71222 2.39039,8.61731 0.51789,2.93941 0.46764,5.94834 0.5076,8.92731 -0.0261,2.58345 0.0402,5.17399 -0.16633,7.7502 -0.71642,4.72994 -1.99277,9.36484 -3.42374,13.92894 -0.80431,2.37612 -1.53371,4.83535 -2.99657,6.90546 -0.74339,1.37615 -1.58771,2.71147 -2.73664,3.78589 -0.32126,0.32906 -0.65247,0.64934 -0.96252,0.98888 0.0882,0.27307 0.55354,0.2305 0.77346,0.38549 1.69924,0.60119 3.40248,1.24805 4.89626,2.27563 0.90534,0.30502 1.81534,-0.277 2.60132,-0.66791 2.097,-1.15619 3.87802,-2.77733 5.55475,-4.46724 3.08343,-3.02927 6.09484,-6.15923 8.69976,-9.61574 1.99435,-3.04417 3.95662,-6.1169 5.90324,-9.18721 0.33459,-0.56868 0.95554,-0.95197 1.07731,-1.63941 0.77951,-1.91206 1.77696,-3.73324 2.39462,-5.71137 0.97177,-2.89495 1.8643,-5.83845 2.3273,-8.8625 0.0166,-1.00883 0.19858,-2.00056 0.51236,-2.95567 0.58398,-2.64712 0.53536,-5.38307 0.56418,-8.07947 -0.0538,-3.50619 -0.13173,-7.03635 -0.74119,-10.49757 -0.12909,-0.6404 -0.28129,-1.40234 -0.95646,-1.68735 -1.65334,-0.80642 -3.52643,-0.9747 -5.31636,-1.28718 -1.32748,-0.19958 -2.67134,-0.22256 -4.01123,-0.20737 z"
         style="opacity:1;vector-effect:none;fill:#ff6600;fill-opacity:1;stroke:none;stroke-width:0.11294972;stroke-linecap:round;stroke-linejoin:miter;stroke-miterlimit:4;stroke-dasharray:none;stroke-dashoffset:0;stroke-opacity:0" />
      <path
         inkscape:connector-curvature="0"
         id="path931"
         d="m 280.93254,261.6134 c -0.55738,0.24859 -0.78168,0.9145 -1.17104,1.35319 -1.9626,2.44285 -4.24714,4.61377 -6.47058,6.81679 -1.91674,1.9156 -4.23138,3.34903 -6.37558,4.98546 -2.47141,1.79348 -5.04474,3.49004 -7.81961,4.77069 -1.5811,0.59785 -2.97736,1.5624 -4.47613,2.32291 -1.10239,0.40572 -2.21798,0.80765 -3.27225,1.346 -4.75153,2.23252 -9.90269,3.40377 -14.97478,4.65165 -2.04245,0.49169 -4.14061,0.63467 -6.23139,0.79099 -0.13256,0.5323 -0.0409,1.16433 -0.0456,1.7373 0.0375,0.91206 1.07862,1.20218 1.79503,1.42675 4.28356,1.17501 8.71151,1.90738 13.16343,1.84418 3.61099,-0.0375 7.31157,0.0259 10.78056,-1.12857 4.05469,-1.31823 7.70518,-3.65767 11.00711,-6.31621 2.66403,-2.23434 5.18125,-4.7945 6.73384,-7.94343 0.0776,-0.23763 0.13977,-0.50633 0.42697,-0.56289 0.46228,-0.21689 0.43925,-0.82845 0.73214,-1.19448 1.82247,-3.30945 4.10633,-6.46145 5.00041,-10.19409 0.41561,-1.51575 1.02352,-2.98042 1.36137,-4.51514 0.0143,-0.10064 -0.0507,-0.21021 -0.16392,-0.1911 z"
         style="opacity:1;vector-effect:none;fill:#ff6600;fill-opacity:1;stroke:none;stroke-width:0.11294972;stroke-linecap:round;stroke-linejoin:miter;stroke-miterlimit:4;stroke-dasharray:none;stroke-dashoffset:0;stroke-opacity:0" />
      <path
         inkscape:connector-curvature="0"
         id="path933"
         d="m 205.52018,261.80073 c -0.15387,0.0748 -0.10266,0.28499 -0.0948,0.42325 0.13416,0.86132 0.41625,1.69104 0.68562,2.51746 0.19512,0.54664 0.35988,1.10899 0.62416,1.62745 0.0387,0.10913 0.21095,0.17742 0.26693,0.0447 0.1211,-0.35319 0.11797,-0.73807 0.0996,-1.10728 -0.0292,-0.4295 -0.1826,-0.85374 -0.46079,-1.18436 -0.40265,-0.56203 -0.62307,-1.22451 -0.82989,-1.87685 -0.0684,-0.15105 -0.099,-0.35173 -0.25161,-0.44278 -0.0127,-0.004 -0.0263,-0.004 -0.0393,-0.002 z"
         style="opacity:1;vector-effect:none;fill:#ff6600;fill-opacity:1;stroke:none;stroke-width:0.02823743;stroke-linecap:round;stroke-linejoin:miter;stroke-miterlimit:4;stroke-dasharray:none;stroke-dashoffset:0;stroke-opacity:0" />
      <path
         inkscape:connector-curvature="0"
         id="path935"
         d="m 222.12055,225.05755 c -2.62046,1.84653 -4.76707,4.25953 -7.03336,6.50459 -1.48055,1.5107 -2.94972,3.11115 -3.73715,5.10954 -0.57079,1.36783 -1.09068,2.77496 -1.39362,4.22737 0.0271,0.46941 0.53783,0.75126 0.7811,1.11793 1.7995,1.84748 2.78027,4.30733 3.28113,6.80076 0.43118,2.10768 1.29602,4.13837 2.68391,5.79693 0.73694,1.05706 1.82321,2.02249 2.01457,3.35247 0.0575,0.67987 -0.74527,0.93243 -1.28446,0.96205 -0.49774,0.12219 -1.16719,-0.007 -1.54746,0.39812 -0.0436,0.39686 0.45305,0.6235 0.64828,0.9235 1.14786,1.4688 2.11169,3.09951 2.78633,4.83978 0.0744,0.39613 0.18278,0.8892 -0.059,1.24156 -0.81661,0.35708 -1.7875,0.2157 -2.61714,-0.0366 -0.62029,-0.19011 -1.41344,-0.62283 -1.9727,-0.059 -0.26155,0.26572 -0.63032,0.34509 -0.95724,0.1404 -1.28567,-0.45696 -2.4422,-1.21657 -3.39352,-2.19177 -0.17727,-0.18954 -0.46219,-0.44621 -0.66876,-0.13273 -0.39868,0.47604 -0.99795,0.69995 -1.44082,1.11379 -0.44552,0.69528 -0.0574,1.56467 0.0403,2.30696 0.65381,3.23196 2.05173,6.29297 4.03412,8.92547 1.09773,1.46659 2.15606,2.99126 3.48853,4.25663 0.84021,0.53694 1.85308,-0.005 2.6556,-0.35607 1.46209,-0.62692 2.6373,-1.77291 3.4306,-3.13925 2.40507,-4.04807 4.49917,-8.3441 5.64455,-12.93055 0.38152,-1.67464 0.85474,-3.3265 1.12298,-5.02707 0.55896,-2.6661 0.90949,-5.36905 1.17554,-8.07787 0.19697,-3.5654 -0.0667,-7.13968 -0.36835,-10.69205 -0.27015,-2.80703 -0.67561,-5.6309 -1.71433,-8.27047 -1.01268,-2.83711 -2.37145,-5.64072 -4.58306,-7.74358 -0.35131,0.0781 -0.68792,0.46152 -1.01657,0.63918 z"
         style="opacity:1;vector-effect:none;fill:#ffff00;fill-opacity:1;stroke:none;stroke-width:0.11294972;stroke-linecap:round;stroke-linejoin:miter;stroke-miterlimit:4;stroke-dasharray:none;stroke-dashoffset:0;stroke-opacity:0" />
      <path
         inkscape:connector-curvature="0"
         id="path937"
         d="m 254.85178,220.2715 c -0.17146,0.26694 0.0841,0.69838 0.0657,1.01733 0.45562,3.21117 0.29255,6.48205 0.332,9.72261 -0.0559,4.0735 0.0724,8.20118 -0.89359,12.1878 -0.92127,4.18466 -1.92915,8.38031 -3.53189,12.36005 -1.13437,2.33786 -2.47584,4.57623 -3.8549,6.77828 -0.75906,0.99795 -1.48213,2.03356 -2.08016,3.14273 -2.90946,4.73562 -6.56438,8.98446 -10.46702,12.92488 -1.9686,1.91412 -3.94989,3.9083 -6.39433,5.21233 -0.50987,0.28554 -1.16382,0.31287 -1.62056,0.67596 0.38747,0.86981 0.89749,1.72419 1.46995,2.49777 0.60241,0.8764 1.72759,1.05848 2.7153,1.0126 1.54854,-0.005 3.12753,-0.0189 4.60822,-0.52543 2.28235,-0.45152 4.5748,-0.89476 6.81184,-1.55458 3.11996,-0.86942 6.19194,-1.92293 9.14917,-3.24608 2.02847,-0.60934 3.87133,-1.69707 5.77681,-2.60128 3.16814,-1.54951 6.25809,-3.27321 9.11158,-5.35391 4.34593,-3.10561 8.42705,-6.62432 11.93073,-10.6653 1.40877,-1.66226 2.53139,-3.54169 3.62354,-5.41715 -0.0968,-4.05674 0.0522,-8.20951 -1.19502,-12.12584 -0.87863,-2.68399 -1.7462,-5.38782 -2.95133,-7.94666 -2.22068,-4.47148 -5.63261,-8.32072 -9.74263,-11.14602 -3.18624,-2.24188 -6.38226,-4.56011 -9.99696,-6.06977 -0.94497,-0.3182 -1.89285,-0.66723 -2.86645,-0.88032 z"
         style="opacity:1;vector-effect:none;fill:#ffff00;fill-opacity:1;stroke:none;stroke-width:0.11294972;stroke-linecap:round;stroke-linejoin:miter;stroke-miterlimit:4;stroke-dasharray:none;stroke-dashoffset:0;stroke-opacity:0" />
      <path
         inkscape:connector-curvature="0"
         id="path34"
         d="m 239.08478,294.17856 c -1.94729,-0.23953 -3.76782,-0.52272 -4.04563,-0.62932 -0.2778,-0.10658 -1.48761,-0.39869 -2.68845,-0.64907 -2.00891,-0.41888 -5.46182,-2.02916 -8.72054,-4.0669 -4.84348,-3.02871 -11.54367,-10.02382 -14.01456,-14.63144 -1.44629,-2.69698 -3.62618,-7.31689 -3.86326,-8.18756 -0.14715,-0.54039 -0.65489,-2.38259 -1.12833,-4.09379 -0.81625,-2.95026 -0.84042,-3.25303 -0.46731,-5.85036 0.21641,-1.5065 0.59503,-3.49609 0.84139,-4.42128 0.24635,-0.92521 0.44965,-1.77358 0.4518,-1.88527 0.002,-0.11165 -0.69616,-0.39142 -1.55175,-0.62162 -1.61201,-0.43373 -2.60014,-1.06961 -4.83067,-3.10869 -0.72051,-0.65865 -2.19427,-1.85367 -3.27503,-2.6556 -1.08076,-0.80192 -2.25977,-1.72587 -2.62002,-2.05321 -0.36025,-0.32734 -1.17082,-0.85485 -1.80127,-1.17226 -1.4639,-0.73704 -4.4569,-3.49796 -6.47421,-5.97224 -0.58873,-0.7221 -1.7421,-1.96046 -2.56304,-2.75194 -6.23187,-6.00813 -7.00745,-7.28422 -7.79114,-12.81886 -0.65229,-4.60659 -0.94466,-5.48655 -1.82294,-5.48655 -0.96316,0 -8.58351,3.51868 -9.18639,4.24179 -0.0901,0.10806 -0.82694,0.701 -1.6375,1.31771 -2.51044,1.91007 -7.44424,6.50767 -12.42424,11.57767 -6.43802,6.55436 -10.73413,9.58537 -15.90189,11.2192 -1.90496,0.60225 -2.31335,0.8566 -2.40119,1.4954 -0.24201,1.76041 -1.65722,8.42208 -2.1116,9.93979 -0.26964,0.90064 -0.96443,3.40603 -1.54398,5.56755 -2.88497,10.75985 -5.09598,17.58848 -6.66952,20.59843 -1.20446,2.30398 -4.64743,5.10769 -7.07501,5.76137 -0.7865,0.21178 -1.74048,0.58849 -2.11997,0.83714 -1.98323,1.29946 -5.30343,1.95634 -13.124349,2.59656 -2.882023,0.23592 -5.903234,0.61176 -6.713804,0.83519 -2.105429,0.58039 -13.82712,0.58487 -19.977659,0.007 -2.79196,-0.26202 -8.097503,-0.47877 -11.790095,-0.48168 -5.691979,-0.005 -6.938106,0.0839 -8.187565,0.58084 -3.487765,1.38715 -6.17053,1.87908 -12.936353,2.37212 -5.633484,0.41053 -7.529211,0.43041 -10.480083,0.10992 -1.981391,-0.21521 -4.728401,-0.45594 -6.104468,-0.53497 -2.946834,-0.16925 -3.884361,-0.77758 -3.884361,-2.52046 0,-2.22558 2.552189,-3.46621 7.148166,-3.47473 2.134938,-0.004 2.202827,-0.0306 2.925549,-1.14627 0.838823,-1.29491 0.101698,-1.1893 9.248937,-1.3252 4.478779,-0.0666 5.383135,-0.17672 7.683143,-0.93607 2.863225,-0.94528 3.836789,-1.48708 4.985343,-2.77439 1.993846,-2.23471 3.051683,-3.17377 5.052249,-4.48494 2.220703,-1.45546 3.69773,-2.91446 4.744667,-4.68679 0.774413,-1.31097 2.496161,-2.16005 3.399632,-1.67653 1.115039,0.59676 1.179726,2.21344 0.185484,4.63563 -0.187891,0.45774 0.1264,0.5726 2.112811,0.77208 2.224457,0.22339 2.428304,0.18398 4.360868,-0.84313 1.115031,-0.59261 2.911587,-1.6903 3.992345,-2.43931 2.749908,-1.90581 6.485531,-2.91207 10.807587,-2.91125 2.881646,6.5e-4 3.498697,0.10707 5.13718,0.88661 1.024185,0.48729 1.925057,0.88599 2.001935,0.88599 0.07688,0 0.225181,-1.73168 0.329555,-3.84817 0.254189,-5.15423 0.790926,-9.76498 1.386581,-11.91117 0.619878,-2.23346 3.094334,-11.59399 3.409361,-12.89714 0.161937,-0.66989 0.05982,-1.34724 -0.320945,-2.12878 -0.757062,-1.5539 -1.863235,-4.92349 -1.885518,-5.74359 -0.0099,-0.36702 -0.329291,-1.91447 -0.7096,-3.43878 -0.38031,-1.52431 -0.756473,-3.27346 -0.835915,-3.88701 -0.266309,-2.05672 0.607963,-6.76783 1.963107,-10.57839 0.709449,-1.99491 4.079582,-7.39207 5.191615,-8.31423 0.56941,-0.47216 2.01355,-1.80063 3.20921,-2.95214 1.19567,-1.1515 2.28474,-2.09365 2.42017,-2.09365 0.13542,0 0.40985,-0.20454 0.60984,-0.45454 0.66925,-0.83664 3.50694,-2.17761 6.37003,-3.01022 3.97369,-1.15559 8.34056,-1.38668 11.70202,-0.61925 2.63816,0.6023 10.24538,0.76329 11.06809,0.23424 0.20415,-0.13129 0.82771,-0.39903 1.38566,-0.59499 1.59511,-0.56019 4.26833,-2.41351 4.73264,-3.2811 0.2323,-0.43406 0.543,-0.78921 0.69042,-0.78921 0.14744,0 0.62039,-0.55265 1.05101,-1.22814 0.43062,-0.67547 2.43629,-2.84926 4.45704,-4.83066 2.02074,-1.98139 5.09983,-5.0026 6.84241,-6.7138 3.3425,-3.28229 6.39907,-5.97167 7.03318,-6.18826 0.20847,-0.0712 0.89484,-0.52271 1.52529,-1.00335 1.6755,-1.27739 3.38422,-2.20598 4.51724,-2.45483 0.54757,-0.12031 1.06481,-0.39906 1.14941,-0.61952 0.0847,-0.22048 0.79695,-0.83332 1.58299,-1.36186 3.7935,-2.55081 5.85492,-4.81288 6.11493,-6.71018 0.0619,-0.4515 -0.0671,-1.67299 -0.28668,-2.71444 -0.42267,-2.00483 -1.278,-3.02446 -3.37422,-4.0224 -2.75783,-1.3129 -4.48911,-2.87651 -5.60798,-5.06491 -0.4171,-0.8158 -1.49954,-2.26038 -2.40541,-3.21019 -0.90588,-0.94982 -1.69363,-1.83248 -1.75055,-1.9615 -0.0569,-0.12902 -0.52539,-0.56091 -1.04106,-0.95978 -0.51567,-0.39887 -1.42483,-1.41055 -2.02036,-2.24818 -0.59552,-0.83762 -1.62966,-1.83497 -2.29809,-2.21632 -3.53433,-2.01643 -6.46732,-12.98973 -6.16715,-23.0734 0.19929,-6.69436 1.65579,-10.97032 5.14993,-15.11902 1.28362,-1.524075 4.3556,-4.152158 5.78199,-4.946495 0.63044,-0.351091 1.80594,-1.025732 2.61222,-1.499204 2.84167,-1.668748 9.43497,-1.535201 11.31302,0.229142 0.44539,0.418415 0.85347,0.698778 0.90683,0.623012 0.0533,-0.07575 0.28359,-0.871959 0.51161,-1.769331 0.50717,-1.996097 1.62715,-3.518189 3.43195,-4.664174 2.02632,-1.286661 5.00759,-1.268156 7.26083,0.04506 0.90064,0.524892 2.13406,1.47513 2.74096,2.111622 1.01037,1.059648 1.27279,1.162039 3.11127,1.214002 3.98316,0.11264 7.95621,2.275135 10.18744,5.545083 1.82964,2.681393 2.60893,5.616273 2.6088,9.825073 -1.8e-4,6.71823 -2.00405,11.5661 -5.53965,13.40185 -0.90543,0.47012 -1.98775,0.85246 -2.40518,0.84963 -0.63614,-0.005 -0.72254,0.11413 -0.5339,0.73177 1.0266,3.36135 2.31193,4.92934 5.10896,6.23247 1.98593,0.92525 2.26528,1.16931 2.44698,2.13789 0.17575,0.93682 0.0494,1.25412 -0.88258,2.21563 -0.59825,0.61724 -1.27987,1.12224 -1.51472,1.12224 -0.23486,0 -0.42702,0.19798 -0.42702,0.43997 0,0.56651 1.04611,3.53992 1.9478,5.53632 l 0.70233,1.55501 1.6556,-0.072 c 1.3063,-0.0568 1.75225,0.0601 2.11372,0.55447 0.71086,0.97215 0.5526,1.70486 -0.65751,3.04431 -1.01826,1.12708 -1.07418,1.29153 -0.6408,1.88409 0.30369,0.41523 0.4402,1.23707 0.37874,2.28038 -0.0852,1.44493 -0.19855,1.66703 -0.99361,1.94527 -0.6753,0.23633 -1.18777,0.1757 -2.06966,-0.24483 -0.64466,-0.30742 -1.08342,-0.41545 -0.97503,-0.24005 0.10843,0.17538 0.0967,1.29884 -0.026,2.49658 -0.2088,2.03792 -0.33011,2.29371 -1.89012,3.98515 -3.35567,3.63842 -7.32902,5.65558 -11.14019,5.65558 -1.48474,0 -2.26666,0.15312 -2.6282,0.51465 -0.61747,0.61746 -0.61621,0.4799 -0.0417,4.53479 0.35304,2.49199 0.59935,3.32557 1.05802,3.58064 1.34502,0.74799 3.00463,2.82603 3.66362,4.58732 0.38528,1.02976 0.70051,2.00914 0.70051,2.1764 0,0.16726 0.2066,0.78808 0.4591,1.3796 0.25251,0.59152 0.68671,1.88607 0.96491,2.87676 0.87713,3.12369 1.77767,5.98674 2.57529,8.18756 0.7395,2.0405 1.07592,2.68929 3.43894,6.63227 1.17783,1.96534 2.05934,4.94469 2.05934,6.96019 0,1.19302 0.18545,1.50869 1.71938,2.92672 0.94567,0.8742 2.82471,2.63727 4.17567,3.91792 1.35095,1.28066 3.19315,2.91429 4.09378,3.63031 0.90064,0.71601 3.13819,2.81532 4.97235,4.66513 3.76426,3.79641 3.51244,3.73326 6.71447,1.68385 3.39275,-2.17148 10.65402,-4.21999 14.93438,-4.21321 2.48229,0.004 8.58594,0.81796 11.04161,1.47258 1.08075,0.28812 2.60382,0.66136 3.3846,0.82944 5.01489,1.07959 14.7917,7.77985 18.85815,12.92389 2.73197,3.45594 3.61439,5.25794 6.33478,12.93635 1.65869,4.68175 1.75996,11.6867 0.25803,17.84889 -0.48293,1.9814 -0.91387,3.89728 -0.95767,4.25753 -0.0745,0.61273 -0.31529,1.07365 -1.75389,3.35691 -0.64564,1.0247 -0.82307,1.33936 -2.53927,4.50316 -0.68398,1.26089 -1.40693,2.39768 -1.60657,2.5262 -0.19965,0.12853 -0.38142,0.38643 -0.40394,0.57314 -0.0225,0.18668 -0.0594,0.4653 -0.0818,0.61912 -0.0225,0.15383 -0.37254,0.67013 -0.77782,1.14735 -0.40528,0.47721 -1.32638,1.58143 -2.0469,2.4538 -0.7205,0.87237 -1.99226,2.08773 -2.82612,2.7008 -0.83386,0.61308 -1.78624,1.50989 -2.1164,1.99293 -0.33014,0.48304 -1.12166,1.10739 -1.7589,1.38743 -1.19084,0.52334 -3.55074,1.82375 -4.8269,2.65986 -1.47806,0.96839 -5.66152,2.41552 -7.83713,2.71101 -3.24797,0.44114 -8.58809,0.39691 -12.66781,-0.10497 z m 15.72572,-1.44807 c 6.2788,-1.6801 14.1113,-7.31736 17.64524,-12.69976 0.61522,-0.937 1.11857,-1.8581 1.11857,-2.04688 0,-0.18878 0.14738,-0.34325 0.3275,-0.34325 0.18013,0 0.32751,-0.15003 0.32751,-0.33341 0,-0.18338 0.61423,-1.32554 1.36494,-2.53814 2.1902,-3.53773 3.4152,-6.0174 3.83963,-7.77227 0.21783,-0.90064 0.68854,-2.43063 1.04603,-3.39998 0.35749,-0.96935 0.58175,-1.83068 0.49836,-1.91408 -0.0834,-0.0834 -0.52429,0.43873 -0.97979,1.16028 -0.9473,1.50061 -7.30735,7.9471 -8.89081,9.01162 -0.58061,0.39033 -2.21587,1.58578 -3.63391,2.65654 -2.94703,2.22528 -6.9528,4.66332 -8.64168,5.25957 -0.63297,0.22349 -1.87769,0.86726 -2.76602,1.43062 -0.88833,0.56336 -1.81226,1.0243 -2.05316,1.0243 -0.24092,0 -1.17888,0.37542 -2.08437,0.83426 -2.50505,1.26941 -6.59692,2.705 -10.26125,3.60007 -1.81472,0.44327 -4.04815,1.01212 -4.96316,1.26411 -0.91499,0.25199 -2.75721,0.53973 -4.09378,0.63943 -1.33657,0.0996 -2.43021,0.18822 -2.4303,0.19672 -9e-5,0.009 -0.0129,0.51857 -0.0285,1.13347 -0.0344,1.36104 0.34307,1.56896 4.55865,2.51063 4.37342,0.97694 7.32426,1.24209 12.66388,1.13794 3.63071,-0.0708 5.38158,-0.26196 7.43639,-0.81179 z M 40.341154,290.55557 c 5.186937,-0.41782 6.886135,-0.68483 9.184758,-1.44326 3.986549,-1.31538 4.104394,-1.3298 11.007965,-1.3476 5.90444,-0.0152 7.583049,0.0817 17.66634,1.01971 4.310377,0.40098 11.81242,0.0537 14.604845,-0.67617 0.63714,-0.16652 3.510975,-0.5237 6.386301,-0.79373 10.595097,-0.99501 12.901907,-1.76349 16.698017,-5.56269 1.83219,-1.83369 2.62361,-3.28369 2.95892,-5.42123 0.0424,-0.27019 0.54434,-1.89133 1.11547,-3.60252 0.57112,-1.71121 1.25816,-4.2903 1.52674,-5.7313 0.26859,-1.44102 0.91569,-4.46223 1.43801,-6.71381 0.52232,-2.25158 1.24653,-6.04154 1.60938,-8.42212 0.36284,-2.3806 0.75952,-4.73862 0.88152,-5.24005 0.21163,-0.86987 0.19327,-0.8873 -0.40036,-0.37997 -1.0292,0.87957 -2.98355,1.34914 -8.06608,1.93801 -3.90029,0.45188 -10.89286,-0.51225 -14.17127,-1.95393 -0.36025,-0.15843 -1.6405,-0.74458 -2.845006,-1.30255 -1.204504,-0.55798 -2.261171,-1.01452 -2.348145,-1.01452 -0.08698,0 -0.38647,1.0039 -0.665541,2.23089 -0.279072,1.22699 -0.812485,3.17973 -1.185361,4.33942 -1.734433,5.39429 -3.207344,17.2515 -2.371626,19.09204 0.175214,0.38588 0.551152,1.21743 0.835417,1.84787 0.284266,0.63044 0.902551,1.77261 1.373968,2.53814 0.617414,1.00263 0.728969,1.39189 0.398879,1.39189 -0.252033,0 -0.725379,-0.49604 -1.05188,-1.10231 -0.425818,-0.7907 -0.76427,-1.05768 -1.197251,-0.94446 -0.331989,0.0868 -0.974422,-0.0852 -1.427626,-0.38206 -0.489431,-0.32069 -1.852692,-0.61862 -3.357482,-0.73374 -2.899607,-0.22185 -7.198628,0.67229 -10.066031,2.0936 -0.900634,0.44643 -2.921842,1.30488 -4.491572,1.90769 -1.569733,0.6028 -3.204789,1.32582 -3.633457,1.60669 -1.749622,1.1464 -6.191447,2.49196 -8.279094,2.50798 -1.138786,0.009 -2.216377,-0.0743 -2.394643,-0.18442 -0.17827,-0.11017 -0.314209,-1.25391 -0.302091,-2.54164 0.01811,-1.92597 -0.08675,-2.42093 -0.59114,-2.79017 -1.469068,-1.07543 -4.549132,0.97362 -8.63698,5.74583 -1.605133,1.87386 -5.746807,4.2715 -8.016727,4.64094 -0.99981,0.16272 -1.954585,0.38038 -2.12173,0.48367 -0.16714,0.10336 -2.669067,0.21986 -5.559838,0.25902 -4.849359,0.0657 -5.241801,0.11574 -5.073088,0.64734 0.206549,0.65079 0.05147,0.70695 -0.766358,0.27755 -0.312776,-0.16422 -1.437415,-0.48763 -2.499196,-0.71868 -1.678008,-0.36514 -2.209909,-0.34681 -4.066666,0.14018 -2.588744,0.67899 -3.009145,0.99636 -3.009145,2.27172 0,0.98651 6.22e-4,0.98683 1.528484,0.77742 1.056508,-0.14481 1.688562,-0.0754 2.046892,0.22479 0.475765,0.39858 2.179775,0.99293 3.793432,1.32317 1.521061,0.31127 7.607545,0.17523 13.540046,-0.30263 z m -16.978822,-0.13084 c 0,-0.61166 -1.167367,-0.92964 -2.755649,-0.75062 -1.446942,0.1631 -1.54562,0.22465 -0.99979,0.62377 0.689169,0.50394 3.755439,0.60752 3.755439,0.12685 z m 205.671628,-0.3017 c 0,-0.41205 -2.56451,-4.27876 -3.57466,-5.38978 -1.12111,-1.23306 -3.35457,-2.3402 -5.69728,-2.82419 -2.7774,-0.57377 -3.14771,-0.29244 -1.63363,1.24108 1.70237,1.72419 5.95621,4.84513 8.39774,6.1612 2.14367,1.15551 2.50783,1.27337 2.50783,0.81169 z m 5.28631,-2.69946 c 0.29564,-0.14867 1.03253,-0.34288 1.63752,-0.43157 4.07894,-0.59791 11.61643,-2.88365 14.76877,-4.47861 0.31278,-0.15826 0.71522,-0.28774 0.8943,-0.28774 0.38323,0 4.63857,-2.05242 8.38809,-4.04571 7.50524,-3.98987 16.9025,-12.10998 19.9945,-17.2771 l 1.43093,-2.39125 v -3.67794 c 0,-3.86743 -0.51588,-7.03996 -1.65607,-10.1844 -0.37647,-1.03821 -0.9617,-2.6639 -1.30053,-3.61261 -1.70942,-4.78637 -5.17957,-9.47838 -9.32476,-12.60803 -5.54945,-4.18989 -9.97586,-6.84135 -12.69833,-7.6064 l -1.56325,-0.43929 0.25083,1.69176 c 0.42413,2.86067 0.2913,16.18478 -0.18665,18.72189 -1.33065,7.06349 -3.34348,13.95412 -4.7847,16.37965 -0.42665,0.71801 -1.3108,2.24377 -1.9648,3.39057 -0.65401,1.14679 -1.40448,2.30045 -1.66771,2.56368 -0.26323,0.26323 -0.64709,0.79871 -0.85301,1.18995 -3.62262,6.88272 -14.44656,18.54817 -18.24555,19.66404 l -0.97043,0.28505 0.61449,1.09407 c 1.23338,2.19592 1.55636,2.37494 4.24257,2.35163 1.35095,-0.0111 2.69815,-0.14295 2.99379,-0.29164 z M 41.345682,284.4632 c 1.514966,-0.31066 2.981738,-0.79211 3.259496,-1.06986 0.45502,-0.45503 0.393073,-0.4721 -0.625713,-0.17255 -1.275073,0.37493 -6.004839,0.46029 -7.312895,0.13199 -0.679328,-0.1705 -0.85914,-0.097 -0.85914,0.35123 0,0.47231 -0.08379,0.49732 -0.50236,0.14993 -0.712904,-0.59166 -5.002611,-0.42962 -6.009011,0.22699 -0.624706,0.40757 -0.689935,0.56955 -0.327502,0.81328 0.734515,0.49393 9.325597,0.19476 12.377125,-0.43101 z m 186.286178,-1.57542 c 0.73752,-0.35633 2.20774,-1.35112 3.26714,-2.21064 2.97505,-2.41375 10.61247,-10.66717 11.67775,-12.61964 0.22003,-0.40327 1.31323,-2.10872 2.42933,-3.7899 1.11609,-1.68116 2.35369,-3.63389 2.75021,-4.33941 0.39651,-0.7055 0.84117,-1.28273 0.98814,-1.28273 0.14695,0 0.26906,-0.18423 0.27133,-0.40938 0.002,-0.22516 0.45521,-1.29363 1.00648,-2.3744 1.63196,-3.19937 3.90192,-10.96012 3.90192,-13.34022 0,-0.47492 0.13728,-1.22459 0.30508,-1.66591 0.68645,-1.80552 0.93275,-7.44284 0.58206,-13.32285 -0.18797,-3.15187 -0.33268,-4.39532 -0.75412,-6.47975 -0.20396,-1.00887 -1.81177,-1.56358 -6.41962,-2.21489 -3.05025,-0.43113 -11.22533,-0.0177 -13.85481,0.70061 -1.13867,0.31108 -5.62789,2.41588 -8.1429,3.81784 -0.56495,0.31492 -1.16947,0.62026 -1.34338,0.67854 -0.17391,0.0583 0.24556,0.95227 0.93216,1.98666 1.98864,2.99603 2.89727,5.58241 4.48838,12.77606 0.41817,1.89065 0.61256,11.07473 0.32998,15.59016 -0.29643,4.73664 -4.37394,18.94076 -6.00298,20.91151 -0.24546,0.29695 -0.73373,1.11533 -1.08507,1.81863 -0.35133,0.70329 -1.19807,1.82329 -1.88164,2.48889 l -1.24285,1.21017 2.06161,0.74527 c 1.13388,0.4099 2.43005,1.0169 2.88036,1.34889 1.0375,0.76488 1.2269,0.76332 2.85544,-0.0235 z m -108.34217,-3.00472 c 1.03865,-1.32043 2.50427,-4.78028 3.44712,-8.1375 0.48058,-1.71119 0.99939,-3.40602 1.15292,-3.76627 0.15353,-0.36027 0.60616,-1.90771 1.00585,-3.43879 0.39969,-1.53107 1.16685,-4.25753 1.7048,-6.05879 1.49609,-5.00947 2.87257,-10.85485 2.87274,-12.19948 4e-5,-0.27224 -0.54168,-0.40938 -1.6171,-0.40938 -1.33158,0 -1.61263,0.10126 -1.59154,0.57313 0.06,1.34291 -1.66861,11.43204 -2.48304,14.49199 -0.26367,0.9907 -0.72042,3.12766 -1.01499,4.74879 -0.29456,1.62114 -0.73016,3.61072 -0.96802,4.42129 -0.23785,0.81057 -0.62558,2.13695 -0.86162,2.94753 -0.69315,2.38028 -2.30248,6.31634 -2.96659,7.25561 -0.33805,0.47812 -0.61464,0.96546 -0.61464,1.08295 0,0.34475 1.23055,-0.61665 1.93411,-1.51108 z m 99.91052,-0.11326 c 1.51732,-0.96453 1.97548,-1.52286 3.49413,-4.25791 2.62263,-4.7233 4.25226,-8.78701 4.92508,-12.28134 0.0868,-0.45032 0.23834,-1.03982 0.33696,-1.31002 0.0986,-0.27019 0.2154,-0.78601 0.25953,-1.14626 0.0441,-0.36025 0.26171,-1.46557 0.48352,-2.45626 0.22182,-0.9907 0.46345,-2.46446 0.53698,-3.27504 0.0735,-0.81056 0.22658,-1.98957 0.34016,-2.62001 0.58027,-3.22124 -0.16812,-14.59497 -1.17537,-17.86264 -1.31215,-4.25679 -2.77561,-7.30559 -4.29139,-8.94019 l -1.01435,-1.09386 -1.36076,0.93011 c -2.01283,1.37582 -8.21661,7.6266 -9.36239,9.43332 -0.547,0.8625 -1.3121,2.59426 -1.70022,3.84835 l -0.70571,2.28017 0.97603,1.03546 c 1.44337,1.53124 2.55393,3.73068 3.00331,5.94799 0.66359,3.27418 1.3682,4.81598 3.19253,6.98563 2.30098,2.73654 2.29907,3.96757 -0.006,4.08737 -1.16428,0.0605 -1.50456,0.32527 -0.899,0.69952 0.81151,0.50153 3.30347,4.83021 3.30347,5.73831 0,0.54618 -0.11054,1.00535 -0.24562,1.02036 -0.1351,0.015 -0.61407,0.0707 -1.06439,0.12378 -0.45031,0.0531 -1.31046,-0.10447 -1.91143,-0.34991 -0.93632,-0.3825 -1.16075,-0.37829 -1.56851,0.0295 -0.41612,0.41612 -0.66946,0.38468 -2.01861,-0.25052 -0.84852,-0.39952 -1.82594,-1.0765 -2.17204,-1.50443 -0.52879,-0.6538 -0.68571,-0.70286 -0.98251,-0.30721 -0.19427,0.25897 -0.61113,0.56762 -0.92634,0.6859 -0.74031,0.27778 -0.72219,0.99928 0.10273,4.08979 0.82599,3.09446 2.21057,5.61103 5.0541,9.18607 2.0765,2.61072 2.20965,2.71445 3.20401,2.49605 0.57061,-0.12533 1.55721,-0.55825 2.19242,-0.96205 z M 66.428924,278.76396 c 1.883536,-0.7132 3.723169,-1.48742 6.550053,-2.75665 0.720506,-0.32349 1.971752,-0.86207 2.780546,-1.19682 0.808794,-0.33477 2.135062,-0.95564 2.947262,-1.37972 3.82708,-1.99828 9.7029,-2.46544 14.413603,-1.14595 0.679954,0.19046 0.755329,0.15031 0.44462,-0.23684 -0.205776,-0.25639 -0.426841,-0.7324 -0.491254,-1.05779 -0.138785,-0.7011 -3.160376,-2.06623 -5.970804,-2.69759 -3.642978,-0.81839 -9.385354,0.59362 -13.312933,3.27351 -1.175066,0.80179 -2.94975,1.83012 -3.94374,2.28519 -1.692737,0.77495 -1.935691,0.80351 -3.833982,0.45049 -1.775634,-0.33023 -2.101721,-0.30905 -2.632098,0.17094 -0.751603,0.6802 -1.372558,0.70581 -1.372558,0.0566 0,-0.27018 0.120079,-0.49124 0.266846,-0.49124 0.338238,0 1.215874,-1.82471 1.500142,-3.11896 0.270537,-1.23177 -0.425239,-2.35834 -1.186571,-1.92126 -0.279203,0.16028 -1.140344,1.10199 -1.913651,2.09269 -0.773301,0.99069 -1.563402,1.92302 -1.755773,2.07183 -0.23861,0.18457 -0.206654,0.32768 0.100547,0.45031 1.25426,0.50067 1.678451,1.39715 1.678451,3.54721 0,1.91265 0.07807,2.17064 0.73688,2.43486 0.933895,0.37455 2.498453,0.11425 4.994416,-0.8308 z M 206.65097,264.26425 c -0.26752,-0.29837 -0.63303,-1.05832 -0.81225,-1.68876 -0.17924,-0.63044 -0.33917,-0.87913 -0.35541,-0.55263 -0.0162,0.32649 0.30206,1.55227 0.70734,2.72394 0.66656,1.927 0.74689,2.03152 0.84179,1.09512 0.0598,-0.5901 -0.10422,-1.26843 -0.38147,-1.57767 z m 6.70845,1.24787 c -0.70218,-0.58499 -1.6831,-0.87103 -1.6831,-0.49082 0,0.21155 1.72608,1.12998 2.12876,1.13271 0.18013,10e-4 -0.0204,-0.28763 -0.44566,-0.64189 z m 4.72248,0.16423 c -0.34964,-0.26446 -1.08652,-0.47616 -1.63751,-0.47043 -0.95172,0.01 -0.97001,0.0344 -0.36606,0.49126 0.34964,0.26446 1.08653,0.47615 1.63751,0.47042 0.95171,-0.01 0.97001,-0.0344 0.36606,-0.49125 z m -4.86101,-1.6771 c -0.94344,-0.93014 -1.76699,-2.14947 -2.15107,-3.18485 -0.62532,-1.68565 -1.10723,-5.77148 -0.68073,-5.77148 0.33094,0 0.6215,1.27392 0.63494,2.78378 0.0156,1.74811 0.95689,3.72827 2.64072,5.55501 1.11504,1.20968 1.57981,1.49055 2.39915,1.44984 0.55892,-0.0277 1.4215,0.11276 1.91685,0.31238 0.49534,0.19958 0.90062,0.27282 0.90062,0.16274 0,-0.38232 -4.03345,-5.84491 -4.62448,-6.26302 -0.32696,-0.23132 -0.90771,-1.48402 -1.29057,-2.78378 -0.38284,-1.29976 -0.81819,-2.49169 -0.96744,-2.64874 -0.14926,-0.15704 -0.19343,-0.48864 -0.0982,-0.73688 0.38162,-0.99446 0.987,-0.34193 1.56818,1.6903 0.84476,2.95396 2.54949,4.616 3.93771,3.8391 0.41629,-0.23297 0.33081,-0.40939 -0.49374,-1.01901 -0.54848,-0.4055 -0.91756,-0.86617 -0.8202,-1.0237 0.23554,-0.38111 -0.5101,-2.01228 -1.20133,-2.62802 -0.53678,-0.47818 -1.63501,-3.80484 -2.08898,-6.32784 -0.12386,-0.68834 -0.57898,-1.67197 -1.01137,-2.18585 -0.4324,-0.51389 -0.76501,-1.05601 -0.73914,-1.20473 0.11771,-0.67666 -0.14479,-1.09101 -1.84493,-2.91204 -0.99792,-1.06887 -2.27917,-2.60097 -2.84722,-3.40467 -0.56807,-0.80368 -2.84648,-3.29607 -5.06316,-5.53863 -2.21668,-2.24256 -4.03033,-4.20464 -4.03033,-4.36018 0,-0.28259 -2.34828,-2.94676 -5.86379,-6.65257 -4.88782,-5.15239 -5.41716,-6.52127 -6.58551,-17.03013 -0.20025,-1.80127 -0.5026,-3.93823 -0.67188,-4.74879 -0.16928,-0.81058 -0.44765,-2.65278 -0.61859,-4.09379 -0.17094,-1.44101 -0.59311,-3.87272 -0.93815,-5.40379 -0.88823,-3.94144 -1.14643,-5.80233 -0.74976,-5.40379 0.33634,0.33792 1.4565,6.00899 2.03295,10.29216 0.18002,1.33766 0.3996,2.54906 0.48794,2.69201 0.0884,0.14294 0.2952,1.40651 0.45969,2.80793 1.36509,11.63037 1.70076,13.50318 2.66697,14.87994 0.33553,0.47813 0.61536,0.99395 0.62185,1.14626 0.006,0.15232 0.36074,0.70373 0.78726,1.22535 0.85247,1.04253 2.352,1.66677 4.81889,2.00605 3.89726,0.53601 8.12539,-3.52644 9.6125,-9.23582 1.06886,-4.10361 0.29601,-10.20585 -1.60885,-12.70326 -0.91242,-1.19625 -1.50399,-1.47937 -1.50399,-0.71982 0,0.47398 -2.47335,4.15084 -3.07193,4.5667 -0.6356,0.44157 -3.26702,-0.1067 -4.46063,-0.92942 -0.63044,-0.43453 -1.83955,-1.63954 -2.68691,-2.67778 -4.18184,-5.12389 -5.29422,-7.501 -6.20922,-13.26887 -0.86698,-5.46524 -2.48863,-9.22188 -5.23867,-12.13571 -2.05195,-2.17417 -4.37723,-3.82616 -5.38845,-3.8282 -1.8158,-0.004 -4.82121,3.72344 -5.23671,6.49427 -0.28398,1.89367 0.37704,9.47809 1.21784,13.97324 0.37061,1.98139 0.94887,5.37104 1.28502,7.53256 0.33617,2.16152 1.06105,5.77223 1.61085,8.02381 1.28879,5.27796 2.49198,11.21978 2.9843,14.73762 0.21426,1.53108 0.59444,3.18751 0.84483,3.68097 0.2504,0.49347 0.46841,1.00929 0.48448,1.14626 0.0368,0.31364 1.39852,1.85178 5.98395,6.75931 4.88415,5.22725 8.0867,8.33523 8.85087,8.58951 0.85017,0.2829 4.98345,3.32962 8.28361,6.10601 1.97659,1.66287 3.13082,2.3805 4.34321,2.70032 1.48346,0.39133 1.681,0.37991 1.94448,-0.11239 0.1613,-0.30139 0.21609,-0.9517 0.1218,-1.44513 -0.1041,-0.54459 -0.0279,-0.89715 0.19417,-0.89715 0.5596,0 0.4397,1.73384 -0.43031,6.22255 -1.1174,5.76508 -1.16803,6.71381 -0.35824,6.71381 0.56212,0 0.70276,-0.38799 1.09803,-3.0294 0.24934,-1.66617 0.58505,-3.0294 0.74602,-3.0294 0.37805,0 0.3434,0.70717 -0.1489,3.03766 -0.21975,1.04028 -0.38068,2.29297 -0.35764,2.78377 0.023,0.49081 0.0649,1.59242 0.0931,2.44801 0.0465,1.41551 0.12291,1.55564 0.84785,1.55564 0.52178,0 0.87203,0.2374 1.01503,0.68797 0.15185,0.47841 0.32261,0.58372 0.56061,0.34573 0.238,-0.238 0.23615,-0.62214 -0.006,-1.26111 -0.70995,-1.87269 -1.14079,-7.94416 -0.56497,-7.96163 0.18356,-0.005 0.41521,1.39804 0.52707,3.19373 0.15733,2.52558 0.38765,3.60123 1.08816,5.08199 0.75302,1.59174 1.02238,1.87945 1.76545,1.88562 0.48227,0.004 1.24309,0.28867 1.69072,0.63261 1.42003,1.09106 1.1709,0.38295 -0.41556,-1.18115 z m -4.87356,-0.32459 c -0.0724,-0.38173 -0.44944,-0.64647 -1.01322,-0.71154 -1.09656,-0.12657 -1.16822,0.43261 -0.16095,1.25601 0.80795,0.66048 1.35475,0.40693 1.17417,-0.54447 z m -2.24357,-3.82384 c 0.004,-0.42649 -0.1972,-0.56616 -0.70621,-0.49126 -0.92893,0.13669 -1.09335,0.70956 -0.40206,1.40085 0.44572,0.44573 0.60698,0.46906 0.82836,0.11994 0.15119,-0.23846 0.27716,-0.70174 0.27991,-1.02948 z m 12.45011,-2.14371 c 0,-0.15582 -0.3173,-0.68672 -0.70511,-1.17974 -0.6244,-0.79379 -0.74032,-0.83353 -1.01253,-0.34711 -0.16908,0.30212 -0.25706,0.58712 -0.19551,0.63334 0.4516,0.33916 1.74871,1.17685 1.82227,1.17685 0.05,0 0.0909,-0.1275 0.0909,-0.28334 z M 119.6481,247.33098 c 3.14788,-0.51019 4.74202,-1.24047 5.55717,-2.54571 0.43695,-0.69968 1.32405,-8.87516 1.34999,-12.44155 0.01,-1.41667 0.14266,-2.18814 0.36281,-2.11477 0.37645,0.12548 0.40553,5.45879 0.0536,9.83898 l -0.20456,2.54639 0.88308,-0.33574 c 0.4857,-0.18467 1.27877,-0.342 1.7624,-0.34962 1.15718,-0.0182 5.89829,-1.63445 6.92911,-2.36208 0.44536,-0.31437 0.91037,-0.57158 1.03334,-0.57158 0.40764,0 4.6912,-2.76703 5.83048,-3.76628 0.61611,-0.54038 3.93132,-3.78557 7.36715,-7.21154 9.27002,-9.24345 11.30432,-10.90106 16.47494,-13.42415 2.38313,-1.16289 4.78903,-2.1491 5.34643,-2.19158 0.83819,-0.0639 0.98521,-0.19228 0.85018,-0.74257 -0.0897,-0.36595 -0.45889,-1.99174 -0.82022,-3.61287 -0.36132,-1.62114 -0.68478,-3.02121 -0.71878,-3.11129 -0.034,-0.0901 -0.048,-0.26317 -0.0313,-0.38467 0.0168,-0.12155 -0.18793,-0.93208 -0.45495,-1.80127 -0.26702,-0.86918 -0.99823,-4.53706 -1.6249,-8.15083 -0.62668,-3.61379 -1.28464,-7.00344 -1.46215,-7.53257 -0.91144,-2.71702 -1.26384,-12.24861 -0.52898,-14.30779 0.24105,-0.67547 0.3024,-1.22814 0.13633,-1.22814 -0.65069,0 -2.80595,1.30788 -4.24277,2.57464 -2.01107,1.77306 -3.14027,4.11977 -5.37983,11.18047 -1.50726,4.75199 -1.76486,5.38899 -3.31852,8.20621 -1.66043,3.01085 -5.01656,6.4525 -7.58832,7.78172 -3.14666,1.62633 -5.82555,2.12204 -11.23404,2.07876 -5.62002,-0.0449 -6.06504,-0.16426 -11.98352,-3.21198 l -4.18049,-2.15274 -2.92833,0.22856 c -3.772,0.29442 -7.29653,1.59727 -9.68051,3.57843 -3.75944,3.12421 -7.17523,6.58942 -7.86928,7.98315 -0.422987,0.84939 -1.163626,2.1683 -1.645871,2.93089 -0.482244,0.76258 -1.066879,2.08897 -1.299193,2.94752 -0.23231,0.85854 -0.53304,1.70837 -0.668283,1.8885 -0.544456,0.72514 -1.008314,4.4186 -0.864302,6.88197 0.08411,1.43859 0.405491,3.72093 0.714191,5.07188 0.308705,1.35094 0.563089,2.67732 0.5653,2.94751 0.0069,0.85034 0.683664,3.38602 1.133817,4.24853 0.237607,0.45528 0.432916,1.04016 0.434026,1.29975 0.0016,0.34655 0.119275,0.31162 0.443282,-0.13149 0.712337,-0.97419 0.85304,-0.14174 0.331386,1.96063 -0.266989,1.07602 -0.513216,2.17716 -0.547168,2.44696 -0.08194,0.65119 3.694125,2.6218 7.105515,3.70814 5.80314,1.84798 9.46597,2.18721 14.61167,1.35322 z m 10.56196,-2.66116 c 0.13509,-0.0801 0.24563,-0.59959 0.24563,-1.15443 v -1.0088 l -1.64532,0.19487 c -2.09669,0.24832 -2.28471,0.37867 -2.28471,1.58395 v 0.9939 l 1.71938,-0.23192 c 0.94567,-0.12756 1.82992,-0.29746 1.96502,-0.37757 z m 79.50195,-5.92015 c 9.8e-4,-1.20457 1.65842,-4.28401 3.60823,-6.70368 1.57494,-1.9545 1.58184,-1.97353 0.95747,-2.64371 -0.34589,-0.37126 -0.7118,-0.93626 -0.81313,-1.25555 -0.10138,-0.31928 -0.44743,-0.66405 -0.76909,-0.76614 -0.32167,-0.10212 -1.2518,-0.88335 -2.06699,-1.73613 -0.81518,-0.85279 -2.83454,-2.86393 -4.4875,-4.4692 -1.65294,-1.60526 -3.25243,-3.33694 -3.55442,-3.84815 -0.30198,-0.51123 -0.6343,-0.92949 -0.73847,-0.92949 -0.10422,0 -0.73663,0.57748 -1.40546,1.2833 -0.66883,0.70581 -1.91504,1.67865 -2.76937,2.16188 -1.40273,0.79338 -1.78337,0.86195 -3.92598,0.7071 l -2.37263,-0.17148 2.0997,2.18526 c 1.15483,1.20189 2.68386,2.92214 3.39781,3.82277 0.71397,0.90064 3.23165,3.66963 5.59486,6.15331 2.3632,2.48369 4.29674,4.62465 4.29674,4.75768 0,0.13304 0.43383,0.71685 0.96405,1.29737 1.20658,1.32103 1.98321,1.38165 1.98418,0.15486 z m 10.19543,-13.15202 c 0.65439,-0.57637 1.44677,-1.23586 1.76085,-1.46552 0.44367,-0.32442 0.49516,-0.55788 0.23083,-1.04664 -0.36658,-0.67778 -5.19532,-5.41421 -7.60278,-7.45742 -0.81057,-0.68792 -2.98961,-2.66504 -4.84229,-4.39359 -4.74395,-4.42605 -4.53465,-4.31972 -4.81214,-2.44452 -0.12606,0.85187 -0.67689,2.68576 -1.22409,4.0753 l -0.99487,2.52643 1.01575,1.58294 c 0.55867,0.87061 2.28037,2.81728 3.82601,4.32593 1.54563,1.50867 3.10394,3.15548 3.46291,3.6596 0.35897,0.50413 1.05087,1.1541 1.53757,1.44438 0.48668,0.29028 1.38754,1.18711 2.00189,1.99296 l 1.11701,1.46517 1.66677,-1.60852 c 0.91672,-0.8847 2.20218,-2.08011 2.85658,-2.6565 z m -77.33416,-23.12903 c 2.61454,-0.60391 3.84794,-1.07242 4.91254,-1.86605 2.03298,-1.51552 4.75956,-4.53997 5.98505,-6.63888 0.73618,-1.26088 1.50892,-2.51358 1.71719,-2.78378 0.35312,-0.45807 0.93789,-2.23887 2.3122,-7.0413 0.30928,-1.08076 0.96155,-2.99664 1.44948,-4.25753 0.48793,-1.26089 0.75745,-2.3428 0.59895,-2.40427 -0.26649,-0.10335 -2.78937,2.2184 -8.66258,7.97182 -1.28715,1.26087 -2.68929,2.60124 -3.1159,2.9786 -0.4266,0.37735 -2.01041,2.17877 -3.51958,4.00317 -1.50916,1.82441 -3.05661,3.41404 -3.43877,3.53255 -0.38216,0.11846 -1.09509,0.4973 -1.58428,0.84181 -2.33207,1.64232 -6.70824,2.1405 -12.6512,1.44021 -5.82874,-0.68682 -5.7829,-0.69589 -3.45262,0.68305 0.56066,0.33176 1.73157,1.03934 2.602,1.57239 2.76781,1.69498 5.97106,2.43277 10.62498,2.44722 2.52212,0.007 4.91104,-0.17607 6.22254,-0.47901 z m 54.187,-1.99456 c 0.29158,-0.1119 0.75509,-0.63842 1.03001,-1.17006 0.47275,-0.91419 0.4553,-1.02505 -0.32177,-2.04384 -2.05713,-2.69704 -4.16228,-7.79623 -5.14667,-12.46654 -0.2278,-1.08077 -0.68026,-2.756 -1.0055,-3.72276 -0.54102,-1.60826 -0.86429,-3.64435 -1.43683,-9.04985 -0.11449,-1.08076 -0.40081,-2.92296 -0.6363,-4.09378 -0.2355,-1.17082 -0.40896,-2.63039 -0.38548,-3.24349 0.0351,-0.91667 -0.0868,-1.13449 -0.68577,-1.2259 -1.33101,-0.20312 -3.55647,-1.43246 -4.66656,-2.57779 -1.4767,-1.52357 -0.95766,-1.89571 0.58482,-0.41932 1.96381,1.87967 4.01648,2.60613 6.77028,2.39604 5.13316,-0.3916 7.13357,-1.17482 10.49948,-4.11088 2.60931,-2.27609 3.23532,-3.49046 3.28633,-6.37503 0.0381,-2.15347 -0.0264,-2.37144 -1.06188,-3.59375 -2.01522,-2.37869 -1.83376,-4.07743 0.5782,-5.41257 1.76707,-0.97818 1.76631,-1.07153 -0.0434,-5.4038 -1.60775,-3.84876 -1.66032,-4.42128 -0.40597,-4.42128 1.01214,0 2.3955,-1.15401 2.3955,-1.99834 0,-0.71834 -1.503,-1.93169 -2.39282,-1.93169 -0.36684,0 -1.27456,-0.63412 -2.01716,-1.40913 -1.61333,-1.68377 -3.18823,-5.63936 -3.38794,-8.5093 -0.11722,-1.68519 0.004,-2.15578 1.09284,-4.25754 1.09832,-2.1191 1.2226,-2.61019 1.20436,-4.75932 -0.0241,-2.84588 -0.44278,-3.63785 -2.43209,-4.60086 -1.78127,-0.86229 -3.94507,-1.2952 -3.20227,-0.64068 1.13143,0.99698 2.29221,2.90855 2.28804,3.76793 -0.0132,2.74254 -1.49681,3.52611 -7.2194,3.81313 -4.39678,0.22053 -5.86102,0.72512 -8.33249,2.87146 -2.23819,1.94376 -2.79596,2.65213 -3.65515,4.64203 -0.86552,2.00453 -0.92801,3.27883 -0.29286,5.97099 0.62688,2.6571 1.71647,4.49986 4.40378,7.44786 2.24487,2.46264 2.91215,3.83644 2.49769,5.14227 -0.34,1.07123 -2.14584,1.19859 -4.51531,0.31842 -2.96482,-1.10131 -3.86226,-1.71088 -5.3059,-3.60391 -0.71029,-0.93139 -1.34882,-1.52133 -1.41894,-1.31097 -0.25224,0.75673 1.04096,2.84537 2.76395,4.46399 1.51174,1.42018 1.75646,1.81942 1.75646,2.86565 0,0.66856 -0.1422,1.21558 -0.31599,1.21558 -0.17379,0 -0.48838,0.32213 -0.69909,0.71587 -0.33177,0.6199 -0.26503,0.81744 0.49799,1.47375 0.48462,0.41685 1.07646,0.75791 1.31523,0.75791 0.23876,0 0.85166,0.54742 1.362,1.2165 0.51032,0.66908 1.19101,1.47965 1.51263,1.80127 0.72491,0.72491 0.77023,3.09565 0.0768,4.01299 -0.42313,0.55969 -0.86336,0.64011 -3.34648,0.61134 -2.96715,-0.0344 -3.77408,-0.29716 -7.84942,-2.55635 -1.21686,-0.67457 -1.3479,-0.69499 -1.06476,-0.16596 0.43358,0.81016 2.83576,2.70449 4.25365,3.35437 1.24284,0.56965 2.93723,2.20992 3.63196,3.51594 0.25667,0.48252 0.4312,1.84883 0.42498,3.32714 l -0.0111,2.50839 -1.7466,2.01612 -1.74659,2.01613 1.60085,1.37053 c 4.91629,4.20896 7.2929,8.28007 8.35203,14.30688 0.98595,5.61046 1.97757,8.27225 4.16087,11.16885 0.48918,0.64901 1.38124,1.87323 1.98236,2.72052 1.96367,2.76784 4.44039,4.02639 6.42495,3.26484 z m -6.29611,-73.72205 c -0.68823,-0.0852 -1.26409,-0.42766 -1.61198,-0.95859 -0.46348,-0.70738 -0.73307,-0.80676 -1.87678,-0.69189 -0.73455,0.0738 -1.53818,0.19713 -1.78587,0.27412 -0.24767,0.077 -0.50772,-0.0139 -0.57791,-0.20187 -0.21018,-0.56311 2.15901,-1.22078 4.61848,-1.28206 1.26765,-0.0316 3.17541,-0.18112 4.23952,-0.33229 l 1.93471,-0.27487 -0.21086,0.78804 c -0.11598,0.43342 -0.21286,1.10521 -0.21533,1.49287 -0.004,0.4942 -0.31269,0.81229 -1.03584,1.06439 -1.02821,0.35843 -1.44999,0.37324 -3.47814,0.12217 z m 2.15231,-1.55377 c 0.35926,-0.35927 -0.14769,-0.43633 -1.70646,-0.25942 -1.3946,0.15826 -1.53253,0.23716 -1.04187,0.59592 0.52622,0.38479 2.23644,0.17539 2.74833,-0.3365 z m 6.77322,71.02007 0.49477,-1.18415 -2.91814,-3.88849 c -1.60496,-2.13865 -2.98447,-4.07434 -3.06555,-4.30151 -0.0811,-0.22717 -0.25188,-0.31648 -0.37955,-0.19845 -0.5173,0.4782 1.63742,5.50575 3.28439,7.66342 0.63626,0.83354 1.31859,1.87054 1.51628,2.30442 0.1977,0.4339 0.40751,0.78892 0.46624,0.78892 0.0587,0 0.32943,-0.53288 0.60156,-1.18416 z m -1.36989,-5.94951 c -0.11016,-0.30945 -0.3022,-0.71002 -0.42677,-0.89014 -0.12456,-0.18013 -0.4741,-1.43284 -0.77677,-2.78378 -0.68815,-3.07168 -1.14045,-4.73312 -1.71807,-6.31106 -0.24862,-0.67911 -0.45201,-1.60021 -0.45201,-2.04688 0,-0.44668 -0.11264,-0.81214 -0.25025,-0.81214 -0.13763,0 -0.51862,-0.62634 -0.84662,-1.39187 -0.32802,-0.76555 -0.97986,-1.79719 -1.44854,-2.29253 -0.97021,-1.02537 -1.84943,-1.20737 -1.5822,-0.3275 0.0957,0.31522 0.25609,1.08895 0.35635,1.71939 0.64632,4.06442 1.59829,8.14301 2.0639,8.84257 0.29974,0.45031 0.82202,1.33457 1.16065,1.96501 0.33863,0.63044 0.87605,1.44102 1.19426,1.80127 0.31822,0.36025 0.98387,1.27894 1.47923,2.04152 0.86799,1.33622 1.65928,1.64473 1.24684,0.48614 z m -16.80965,-37.56523 c 0.68792,-0.42517 0.34875,-2.35469 -0.64064,-3.64458 -1.24154,-1.61863 -1.05064,-1.44523 -3.93597,-3.57501 -3.70657,-2.73594 -5.09432,-4.02595 -7.03634,-6.54074 -2.19007,-2.83594 -3.89763,-6.07082 -5.01341,-9.49756 -0.7404,-2.2739 -0.85066,-3.16087 -0.83461,-6.71382 0.0167,-3.69945 0.10188,-4.27909 0.88388,-6.01767 0.47595,-1.05815 0.86538,-2.07817 0.86538,-2.26673 0,-0.51054 1.01933,-1.54068 1.52452,-1.54068 0.24227,0 0.44049,0.22107 0.44049,0.49126 0,0.27019 -0.20359,0.49125 -0.45243,0.49125 -0.24883,0 -0.67698,0.62635 -0.95143,1.39188 -0.27446,0.76555 -0.75155,2.05508 -1.06021,2.86566 -0.95421,2.50591 -0.77755,7.01529 0.43238,11.03659 0.55275,1.83717 1.29087,3.75305 1.64026,4.25755 0.34939,0.50448 1.01154,1.58044 1.47143,2.391 0.4599,0.81058 1.10508,1.84 1.43373,2.28764 1.02713,1.39894 4.6487,4.82988 5.26964,4.99225 0.96993,0.25365 2.04171,-0.31229 2.04171,-1.0781 0,-0.90284 -1.14383,-2.50237 -1.97901,-2.76745 -0.89115,-0.28284 -1.94639,-2.46916 -2.18217,-4.52112 -0.11759,-1.02304 -0.53939,-2.21725 -1.06222,-3.007 -1.68622,-2.54713 -3.05144,-6.97086 -3.47366,-11.25584 -0.31063,-3.15243 -0.0111,-4.39096 1.44562,-5.96806 0.96322,-1.04317 1.42797,-1.31143 2.12367,-1.22583 1.28314,0.15788 1.22403,0.69886 -0.10608,0.97091 -1.32997,0.272 -2.53366,1.61172 -2.82355,3.14262 -0.4837,2.55429 1.33873,10.64781 2.97165,13.19726 0.40637,0.63447 1.04276,1.74929 1.4142,2.47737 0.7754,1.51992 4.12125,5.04787 4.78731,5.04787 0.24579,0 0.86903,0.22016 1.38497,0.48924 1.03053,0.53747 3.90165,0.66969 4.19611,0.19326 0.35203,-0.56962 -0.513,-2.12781 -2.36893,-4.26721 -1.02417,-1.18062 -1.95489,-2.22027 -2.06823,-2.31034 -0.57426,-0.45626 -2.27231,-3.96814 -2.61284,-5.40379 -0.97799,-4.12334 0.1072,-7.72356 3.21264,-10.65864 3.26511,-3.08597 4.2685,-3.48718 10.14321,-4.05592 4.94678,-0.4789 5.99247,-0.91663 5.99247,-2.50841 0,-0.54807 -0.14814,-1.27329 -0.32919,-1.61162 -0.57632,-1.07685 -2.09919,-2.56483 -2.94583,-2.87831 -1.34661,-0.49861 -4.56793,0.0781 -6.83848,1.22425 -2.1885,1.10476 -5.27911,3.88732 -5.27911,4.75293 0,0.27877 -0.14737,0.50684 -0.3275,0.50684 -0.18014,0 -0.32751,-0.18827 -0.32751,-0.41837 0,-1.20549 3.43181,-4.55375 5.48567,-5.35211 0.76554,-0.29758 1.39188,-0.65328 1.39188,-0.79044 0,-0.38673 3.89476,-0.97243 6.41313,-0.96444 3.71994,0.0124 6.6592,1.64792 7.34207,4.08688 0.72001,2.57161 0.55716,4.6625 -0.56111,7.20477 -1.92346,4.37279 -1.71552,6.00373 0.70751,5.54918 1.52131,-0.28541 4.21932,-3.23126 4.90968,-5.36069 1.44607,-4.46051 1.49104,-10.07388 0.11066,-13.82246 -1.21134,-3.289703 -2.89322,-5.229616 -5.8219,-6.715081 -2.42716,-1.231109 -2.49894,-1.245356 -6.05879,-1.203085 -3.48242,0.04134 -4.27159,0.159739 -7.91562,1.187525 -1.47429,0.415816 -4.32134,2.211141 -4.63865,2.925095 -0.06,0.135094 -0.31897,0.245618 -0.57538,0.245618 -0.25642,0 -1.62089,1.142172 -3.03215,2.538158 -2.49015,2.46318 -4.18042,5.16819 -4.80915,7.6963 -0.25481,1.02463 -0.80798,1.21603 -0.80798,0.27957 0,-1.04984 1.82004,-5.16067 2.8693,-6.48074 1.58003,-1.98783 4.06209,-4.200417 6.83932,-6.096771 1.94715,-1.329564 3.2318,-1.929343 5.28319,-2.466637 1.49075,-0.390453 3.06634,-0.709918 3.50133,-0.709918 1.21,0 1.32404,-0.608592 0.31197,-1.66496 -1.60256,-1.672708 -3.49353,-2.374531 -5.88142,-2.182857 -2.52139,0.202394 -3.90257,0.948852 -5.21751,2.819782 -0.836,1.189469 -0.9881,1.721874 -1.0247,3.586813 -0.0475,2.423957 -0.40056,2.962539 -1.05148,1.604419 -0.83155,-1.734958 -4.75968,-3.059756 -8.13726,-2.744351 -2.04372,0.190845 -4.594,1.278765 -5.51655,2.353303 -0.18012,0.209796 -0.99069,0.759245 -1.80126,1.220984 -0.81057,0.461751 -2.39172,1.774678 -3.51368,2.917613 -3.20542,3.26537 -4.55647,5.86879 -5.6673,10.92065 -0.46163,2.09938 -0.35839,10.52272 0.16857,13.75511 0.8918,5.47026 1.18742,6.54179 2.62023,9.49758 1.42405,2.93774 2.61769,4.24696 3.12444,3.42702 0.13584,-0.21981 0.41188,-0.29775 0.61342,-0.17319 0.73044,0.45143 0.78924,-0.91597 0.0963,-2.24005 -2.8649,-5.47452 -3.93032,-12.19634 -2.68257,-16.92457 0.59685,-2.26167 2.65101,-7.19181 3.6657,-8.7979 0.50593,-0.8008 0.91986,-1.58444 0.91986,-1.74141 0,-0.37442 2.0567,-2.84784 2.37439,-2.85548 0.53994,-0.013 0.19464,1.01287 -0.68316,2.02959 -0.51083,0.59169 -1.14691,1.51791 -1.41351,2.05829 -0.2666,0.54039 -0.65431,1.27726 -0.86158,1.63751 -2.16373,3.76063 -3.67367,8.94005 -3.67367,12.60152 0,3.3637 1.27016,7.97795 3.09662,11.24944 0.96593,1.73018 1.03004,2.41403 0.32119,3.42609 -0.69257,0.98876 -0.38286,1.77544 1.44324,3.66596 0.83889,0.86846 2.11475,2.27324 2.83525,3.12172 2.47469,2.91422 3.91742,4.07405 7.20506,5.79223 1.44101,0.75309 3.13584,1.48003 3.76628,1.61541 1.23583,0.26539 4.35594,0.13698 4.90412,-0.20182 z m 27.84613,-2.60391 c 0,-0.43859 -0.14993,-1.19182 -0.3332,-1.67385 -0.28045,-0.73763 -0.48886,-0.85357 -1.31623,-0.73214 -1.38167,0.20279 -2.00817,-0.59736 -0.8211,-1.04868 0.48162,-0.18312 0.9766,-0.33758 1.09997,-0.34328 0.37695,-0.0173 1.93032,-1.49226 2.30081,-2.18453 0.25214,-0.47112 0.24421,-0.7572 -0.0286,-1.02997 -0.67466,-0.67466 -1.38893,-0.49202 -5.73234,1.46579 -1.9712,0.88852 -1.26285,2.68387 2.15389,5.45913 1.41922,1.15277 2.67677,1.19389 2.67677,0.0875 z"
         style="fill:#000000;stroke-width:0.32750261" />
      <path
         sodipodi:nodetypes="csccc"
         inkscape:connector-curvature="0"
         id="path47"
         d="m 181.9159,185.30026 c -0.083,-0.53928 -0.55648,-2.6081 -0.57977,-2.67748 -0.49645,-1.47886 -1.21181,-2.84511 -1.78076,-3.99017 -1.41233,-2.8424 -3.36184,-5.46658 -5.42509,-7.54278 -0.5213,-0.52455 -2.59414,-2.47367 -3.02315,-2.04196"
         style="fill:none;stroke:#000000;stroke-width:0.45507115;stroke-linecap:round;stroke-linejoin:miter;stroke-miterlimit:4;stroke-dasharray:none;stroke-opacity:1" />
    </g>
  </g>
</svg>
